<svg width="672" height="500" viewBox="0 0 672 500" fill="none" xmlns="http://www.w3.org/2000/svg">
<path d="M672 439.393H0V439.728H672V439.393Z" fill="#E6E6E6"/>
<path d="M167.763 459.697H123.25V460.033H167.763V459.697Z" fill="#E6E6E6"/>
<path d="M109.159 459.697H83.3672V460.033H109.159V459.697Z" fill="#E6E6E6"/>
<path d="M282.98 464.637H257.188V464.972H282.98V464.637Z" fill="#E6E6E6"/>
<path d="M417.454 472.125H359.406V472.461H417.454V472.125Z" fill="#E6E6E6"/>
<path d="M347.445 472.125H338.938V472.461H347.445V472.125Z" fill="#E6E6E6"/>
<path d="M609.304 464.637H483.398V464.972H609.304V464.637Z" fill="#E6E6E6"/>
<path d="M318.533 379.536H59.0202C56.9872 379.533 55.0386 378.724 53.6024 377.287C52.1661 375.85 51.3594 373.903 51.3594 371.873V7.59609C51.3771 5.57766 52.1916 3.64771 53.626 2.22544C55.0603 0.80317 56.9988 0.00345768 59.0202 0H318.533C320.568 0 322.52 0.80737 323.96 2.2445C325.399 3.68163 326.207 5.63079 326.207 7.66319V371.873C326.207 373.905 325.399 375.855 323.96 377.292C322.52 378.729 320.568 379.536 318.533 379.536ZM59.0202 0.268414C57.0763 0.271969 55.2132 1.04556 53.8399 2.41938C52.4667 3.7932 51.6954 5.65499 51.6954 7.59609V371.873C51.6954 373.814 52.4667 375.676 53.8399 377.05C55.2132 378.424 57.0763 379.197 59.0202 379.201H318.533C320.478 379.197 322.343 378.424 323.718 377.051C325.094 375.677 325.868 373.815 325.871 371.873V7.59609C325.868 5.65376 325.094 3.792 323.718 2.41856C322.343 1.04512 320.478 0.271962 318.533 0.268414H59.0202Z" fill="#E6E6E6"/>
<path d="M609.248 379.536H349.721C347.687 379.533 345.737 378.724 344.299 377.288C342.86 375.851 342.05 373.904 342.047 371.873V7.59609C342.068 5.57644 342.886 3.6465 344.322 2.2246C345.759 0.802701 347.698 0.00341997 349.721 0H609.248C611.267 0.00698478 613.202 0.808258 614.633 2.23015C616.065 3.65204 616.877 5.57998 616.895 7.59609V371.873C616.895 373.901 616.09 375.846 614.657 377.282C613.223 378.719 611.278 379.529 609.248 379.536ZM349.721 0.268414C347.776 0.271962 345.912 1.04512 344.536 2.41856C343.161 3.792 342.386 5.65376 342.383 7.59609V371.873C342.386 373.815 343.161 375.677 344.536 377.051C345.912 378.424 347.776 379.197 349.721 379.201H609.248C611.193 379.197 613.057 378.424 614.433 377.051C615.808 375.677 616.582 373.815 616.586 371.873V7.59609C616.582 5.65376 615.808 3.792 614.433 2.41856C613.057 1.04512 611.193 0.271962 609.248 0.268414H349.721Z" fill="#E6E6E6"/>
<path d="M359.383 324.754H329.828V441.822H359.383V324.754Z" fill="#E0E0E0"/>
<path d="M353.77 441.821H359.388V425.877H347.883L353.77 441.821Z" fill="#FAFAFA"/>
<path d="M229.875 324.754H200.32V441.822H229.875V324.754Z" fill="#E0E0E0"/>
<path d="M359.384 324.754H224.984V432.039H359.384V324.754Z" fill="#FAFAFA"/>
<path d="M354.51 330.027V358.412H229.828V330.027H354.47H354.51ZM354.994 329.504H229.344V358.922H355.035V329.504H354.994Z" fill="#E0E0E0"/>
<path d="M230.589 441.821H224.984V425.877H236.476L230.589 441.821Z" fill="#FAFAFA"/>
<path d="M289.219 344.212C289.219 344.799 289.393 345.372 289.719 345.86C290.046 346.348 290.51 346.728 291.052 346.952C291.595 347.177 292.192 347.235 292.769 347.121C293.345 347.007 293.874 346.724 294.289 346.309C294.705 345.895 294.988 345.366 295.102 344.791C295.217 344.215 295.158 343.619 294.933 343.077C294.709 342.535 294.328 342.072 293.839 341.746C293.351 341.42 292.777 341.246 292.189 341.246C291.401 341.246 290.646 341.559 290.089 342.115C289.532 342.671 289.219 343.425 289.219 344.212Z" fill="#E6E6E6"/>
<path d="M354.51 364.197V392.582H229.828V364.197H354.47H354.51ZM354.994 363.688H229.344V393.106H355.035V363.701L354.994 363.688Z" fill="#E0E0E0"/>
<path d="M289.219 378.462C289.219 379.049 289.393 379.622 289.719 380.11C290.046 380.598 290.51 380.978 291.052 381.202C291.595 381.427 292.192 381.485 292.769 381.371C293.345 381.257 293.874 380.974 294.289 380.559C294.705 380.145 294.988 379.616 295.102 379.041C295.217 378.465 295.158 377.869 294.933 377.327C294.709 376.785 294.328 376.322 293.839 375.996C293.351 375.67 292.777 375.496 292.189 375.496C291.401 375.496 290.646 375.809 290.089 376.365C289.532 376.921 289.219 377.675 289.219 378.462Z" fill="#E6E6E6"/>
<path d="M354.51 398.379V426.777H229.828V398.379H354.47H354.51ZM354.994 397.855H229.344V427.287H355.035V397.855H354.994Z" fill="#E0E0E0"/>
<path d="M289.219 412.579C289.221 413.165 289.398 413.737 289.726 414.223C290.054 414.709 290.519 415.087 291.062 415.31C291.605 415.532 292.202 415.589 292.777 415.473C293.352 415.357 293.88 415.073 294.294 414.658C294.708 414.243 294.99 413.714 295.103 413.139C295.217 412.564 295.157 411.969 294.932 411.427C294.707 410.886 294.326 410.424 293.838 410.099C293.35 409.773 292.776 409.6 292.189 409.6C291.798 409.6 291.411 409.677 291.049 409.827C290.688 409.977 290.36 410.196 290.084 410.473C289.808 410.75 289.589 411.078 289.441 411.44C289.293 411.801 289.217 412.188 289.219 412.579Z" fill="#E6E6E6"/>
<path d="M211.828 256.764H182.273V441.835H211.828V256.764Z" fill="#E0E0E0"/>
<path d="M206.209 441.821H211.828V425.877H200.336L206.209 441.821Z" fill="#FAFAFA"/>
<path d="M101.383 256.764H71.8281V441.835H101.383V256.764Z" fill="#E0E0E0"/>
<path d="M211.824 256.764H96.4688V432.051H211.824V256.764Z" fill="#FAFAFA"/>
<path d="M206.852 261.702V301.386H101.442V261.702H206.852ZM207.47 261.098H100.797V301.964H207.443V261.111L207.47 261.098Z" fill="#E0E0E0"/>
<path d="M206.856 306.233V411.491H156.644V306.233H206.856ZM207.474 305.615H156.039V412.108H207.474V305.615Z" fill="#E0E0E0"/>
<path d="M151.654 306.233V411.491H101.442V306.233H151.654ZM152.259 305.615H100.797V412.108H152.232V305.615H152.259Z" fill="#E0E0E0"/>
<path d="M102.087 441.821H96.4688V425.877H107.974L102.087 441.821Z" fill="#FAFAFA"/>
<path d="M151.172 281.566C151.169 282.155 151.342 282.733 151.668 283.224C151.994 283.716 152.46 284.1 153.004 284.328C153.549 284.555 154.15 284.616 154.73 284.503C155.309 284.389 155.842 284.107 156.261 283.691C156.679 283.274 156.965 282.744 157.081 282.165C157.197 281.587 157.139 280.987 156.914 280.442C156.688 279.897 156.306 279.431 155.815 279.103C155.324 278.775 154.746 278.6 154.156 278.6C153.367 278.6 152.61 278.912 152.051 279.468C151.491 280.023 151.175 280.778 151.172 281.566Z" fill="#E6E6E6"/>
<path d="M161.813 356.358C161.813 356.948 161.988 357.525 162.316 358.015C162.645 358.505 163.112 358.887 163.658 359.112C164.204 359.337 164.804 359.395 165.383 359.279C165.963 359.163 166.494 358.878 166.911 358.46C167.328 358.042 167.611 357.51 167.724 356.931C167.838 356.352 167.777 355.753 167.549 355.209C167.321 354.665 166.937 354.2 166.444 353.875C165.952 353.549 165.374 353.376 164.783 353.379C164.392 353.379 164.004 353.456 163.643 353.606C163.282 353.756 162.954 353.976 162.678 354.252C162.402 354.529 162.183 354.858 162.035 355.219C161.886 355.581 161.811 355.968 161.813 356.358Z" fill="#E6E6E6"/>
<path d="M140.547 356.358C140.55 356.944 140.726 357.516 141.054 358.002C141.382 358.488 141.847 358.866 142.39 359.089C142.933 359.311 143.53 359.368 144.105 359.252C144.68 359.136 145.208 358.853 145.622 358.437C146.036 358.022 146.318 357.494 146.431 356.919C146.545 356.344 146.485 355.748 146.26 355.207C146.035 354.666 145.654 354.203 145.166 353.878C144.678 353.553 144.104 353.379 143.517 353.379C143.126 353.379 142.739 353.456 142.377 353.606C142.016 353.756 141.688 353.976 141.412 354.252C141.136 354.529 140.918 354.858 140.769 355.219C140.621 355.581 140.545 355.968 140.547 356.358Z" fill="#E6E6E6"/>
<path d="M137.18 205.162H124.72C125.868 211.197 126.592 217.305 126.884 223.441C126.884 230.151 117.395 256.765 130.916 256.765C144.437 256.765 134.948 230.218 134.948 223.441C135.263 217.303 136.009 211.196 137.18 205.162Z" fill="#E0E0E0"/>
<path d="M89.7812 232.379V240.431C89.7954 244.748 91.519 248.884 94.5758 251.936C97.6326 254.989 101.774 256.71 106.097 256.724H114.161C118.484 256.71 122.626 254.989 125.683 251.936C128.74 248.884 130.463 244.748 130.478 240.431V232.379H89.7812Z" fill="#F5F5F5"/>
<path d="M262.984 307.682C262.984 317.076 273.508 324.753 286.37 324.753H297.982C310.844 324.753 321.368 317.076 321.368 307.682H262.984Z" fill="#E0E0E0"/>
<path d="M570.676 293.913C563.633 299.657 553.903 310.166 545.005 324.955C539.065 334.806 535.49 345.086 533.917 358.748C533.917 343.315 534.011 326.74 534.065 311.092C535.853 307.065 539.938 297.778 542.868 290.451C552.639 265.985 556.308 259.959 565.085 238.862C576.818 210.678 588.833 177.314 585.392 179.985C578.377 185.421 551.497 235.681 548.594 242.874C540.681 262.072 535.789 282.376 534.092 303.066C534.092 288.303 534.199 274.883 534.253 264.468C534.441 230.501 535.019 219.536 535.302 216.154C536.39 214.436 537.667 212.436 538.42 211.363C544.736 202.237 547.169 194.48 553.11 180.871C561.55 161.612 568.807 127.403 566.684 129.121C557.84 136.314 550.878 151.748 541.712 171.436C532.546 191.124 535.167 202.438 533.353 219.241C532.976 222.542 532.681 234.996 532.466 252.242C530.1 233.856 525.638 221.75 517.507 210.745C507.508 197.204 497.831 188.064 490.734 183.287C483.638 178.509 502.992 211.765 512.238 226.233C520.477 239.17 528.071 250.564 532.398 261.798C532.17 285.19 532.062 314.796 532.062 342.322C529.939 329.787 526.471 316.272 521.848 305.817C516.284 293.256 507.736 273.983 500.922 267.448C499.296 265.877 508.045 303.361 513.663 313.319C519.281 323.278 523.407 332.685 526.942 338.336C527.762 339.678 530.503 344.737 532.062 347.663C532.062 381.308 532.251 410.995 532.546 421.101H533.998C533.904 418.497 533.877 401.372 533.917 378.718C537.425 366.425 545.435 352.387 552.048 339.584C559.252 325.72 577.718 288.209 570.676 293.913Z" fill="#E0E0E0"/>
<path d="M554.322 441.822H512.201L509.016 400.594H557.507L554.322 441.822Z" fill="#F0F0F0"/>
<path d="M560.64 405.398H505.872L504.312 391.48H562.212L560.64 405.398Z" fill="#F5F5F5"/>
<path d="M167.003 27.5117H91.6719V110.116H167.003V27.5117Z" fill="#E0E0E0"/>
<path d="M175.161 27.5117H97.3438V110.116H175.161V27.5117Z" fill="#F5F5F5"/>
<path d="M168.648 103.608V34.0215L103.868 34.0215V103.608H168.648Z" fill="white"/>
<path d="M152.93 86.7235V50.877H119.558V86.7235H152.93Z" fill="#F5F5F5"/>
<path d="M551.107 37.1348H481.125V113.874H551.107V37.1348Z" fill="#E0E0E0"/>
<path d="M558.687 37.1348H486.406V113.874H558.687V37.1348Z" fill="#F5F5F5"/>
<path d="M552.641 107.821V43.1875L492.47 43.1875V107.821H552.641Z" fill="white"/>
<path d="M522.549 94.2532C532.919 94.2532 541.325 85.8591 541.325 75.5045C541.325 65.1499 532.919 56.7559 522.549 56.7559C512.18 56.7559 503.773 65.1499 503.773 75.5045C503.773 85.8591 512.18 94.2532 522.549 94.2532Z" fill="#F5F5F5"/>
<path d="M245.266 76.7656H189.383V138.044H245.266V76.7656Z" fill="#E0E0E0"/>
<path d="M251.319 76.7656H193.594V138.044H251.319V76.7656Z" fill="#F5F5F5"/>
<path d="M246.477 133.214V81.5977H198.429V133.214H246.477Z" fill="white"/>
<path d="M222.457 94.3477L209.312 117.082H235.602L222.457 94.3477Z" fill="#F5F5F5"/>
<path d="M335.994 500C479.913 500 596.583 493.198 596.583 484.807C596.583 476.417 479.913 469.615 335.994 469.615C192.076 469.615 75.4062 476.417 75.4062 484.807C75.4062 493.198 192.076 500 335.994 500Z" fill="#F5F5F5"/>
<path d="M469.39 145.519L456.058 140.15C456.058 140.15 438.465 172.186 433.425 173.809C426.571 176.01 412.378 182.13 403.964 183.204C402.822 184.546 400.954 188.72 401.129 190.236C412.432 194.007 437.269 189.002 442.591 185.056C454.7 176.104 469.39 145.519 469.39 145.519Z" fill="#E58A7B"/>
<path d="M473.487 138.231C475.973 147.397 462.506 165.837 462.506 165.837L444.859 155.96C444.859 155.96 448.166 148.377 452.198 140.66C458.662 128.192 470.651 127.776 473.487 138.231Z" fill="#402A2E"/>
<path opacity="0.2" d="M473.487 138.231C475.973 147.397 462.506 165.837 462.506 165.837L444.859 155.96C444.859 155.96 448.166 148.377 452.198 140.66C458.662 128.192 470.651 127.776 473.487 138.231Z" fill="black"/>
<path opacity="0.2" d="M451.859 159.907L458.808 163.799L460.031 142.5C455.986 145.6 453.136 154.941 451.859 159.907Z" fill="black"/>
<path d="M461.875 131.335C461.875 131.335 448.139 161.853 456.149 218.676H510.272C511.132 210.382 508.283 169.906 518.591 130.825C512.654 129.666 506.647 128.899 500.609 128.53C492.95 128.086 485.272 128.086 477.613 128.53C472.303 129.068 467.042 130.006 461.875 131.335Z" fill="#402A2E"/>
<path opacity="0.2" d="M461.875 131.335C461.875 131.335 448.139 161.853 456.149 218.676H510.272C511.132 210.382 508.283 169.906 518.591 130.825C512.654 129.666 506.647 128.899 500.609 128.53C492.95 128.086 485.272 128.086 477.613 128.53C472.303 129.068 467.042 130.006 461.875 131.335Z" fill="black"/>
<g style="mix-blend-mode:multiply">
<path d="M449.321 486.016C449.24 487.465 469.763 488.633 495.151 488.633C520.539 488.633 541.21 487.465 541.29 486.016C541.371 484.566 520.862 483.412 495.46 483.412C470.058 483.412 449.415 484.58 449.321 486.016Z" fill="#E8ECF1"/>
</g>
<path d="M485.451 447.93L475.852 451.641L484.12 472.971L493.72 469.26L485.451 447.93Z" fill="#E58A7B"/>
<path d="M528.252 475.695H518.131L514.422 452.303H524.543L528.252 475.695Z" fill="#E58A7B"/>
<path d="M517.439 474.527H528.809C529.006 474.528 529.197 474.598 529.347 474.726C529.497 474.854 529.597 475.031 529.629 475.225L531.094 484.204C531.125 484.429 531.106 484.658 531.041 484.876C530.975 485.093 530.863 485.294 530.713 485.465C530.562 485.636 530.377 485.772 530.169 485.865C529.961 485.957 529.735 486.004 529.508 486.002C525.543 485.935 523.634 485.693 518.635 485.693C515.557 485.693 509.227 486.015 504.953 486.015C500.679 486.015 500.397 481.828 502.157 481.439C510.06 479.735 513.124 477.413 515.759 475.158C516.223 474.751 516.82 474.526 517.439 474.527Z" fill="#263238"/>
<path d="M483.839 471.064L494.591 467.923C494.783 467.869 494.988 467.882 495.171 467.961C495.355 468.039 495.506 468.177 495.599 468.353L499.631 476.405C499.725 476.61 499.773 476.832 499.772 477.056C499.77 477.281 499.72 477.503 499.624 477.706C499.528 477.909 499.389 478.089 499.216 478.233C499.043 478.377 498.841 478.481 498.623 478.539C494.712 479.613 492.092 480.27 487.199 481.693C483.826 482.673 480.385 484.27 477.052 485.33C474.741 486.068 469.311 486.095 466.502 486.095C462.349 486.095 461.422 481.72 463.209 481.518C467.711 481.022 468.316 481.25 470.803 480.002C474.871 478.226 478.558 475.683 481.662 472.513C482.247 471.847 482.999 471.347 483.839 471.064Z" fill="#263238"/>
<path d="M405.657 183.151L394.528 178.494L389.945 190.814C394.507 191.508 399.147 191.508 403.708 190.814L405.657 183.151Z" fill="#E58A7B"/>
<path d="M386.249 178.172L385.953 186.358L389.945 190.787L394.528 178.467L386.249 178.172Z" fill="#E58A7B"/>
<path d="M486.77 449.741L477.141 453.453L481.405 464.483L491.035 460.771L486.77 449.741Z" fill="#CF6F64"/>
<path d="M524.543 452.303H514.422L516.344 464.368H526.465L524.543 452.303Z" fill="#CF6F64"/>
<path opacity="0.2" d="M454.43 203.308C454.631 205.737 454.86 208.22 455.155 210.77L495.395 197.725C501.679 195.865 507.14 191.922 510.878 186.545C511.039 182.962 511.241 179.191 511.55 175.259C511.684 173.353 511.845 171.394 512.02 169.407C512.195 167.421 512.437 165.22 512.692 163.1L454.43 203.308Z" fill="black"/>
<path d="M467.578 159.289L466.234 159.128C467.027 152.418 472.041 147.13 477.323 147.264V148.606C472.699 148.512 468.291 153.277 467.578 159.289Z" fill="white"/>
<path d="M474.744 171.676H474.516V170.334C479.139 170.508 483.48 165.69 484.193 159.691L485.537 159.852C484.824 166.415 479.972 171.676 474.744 171.676Z" fill="white"/>
<path d="M499.858 102.668C497.963 110.063 495.732 123.604 500.611 128.53C500.611 128.53 497.197 136.032 483.448 136.032C470.881 136.032 477.614 128.53 477.614 128.53C485.974 126.57 486.122 120.477 485.02 114.706L499.858 102.668Z" fill="#E58A7B"/>
<path d="M493.808 107.58L485.031 114.706C485.303 116.033 485.461 117.38 485.502 118.733C488.069 121.283 493.216 114.827 493.741 111.526C494.007 110.226 494.03 108.888 493.808 107.58Z" fill="#CF6F64"/>
<path d="M469.937 102.573C470.548 103.63 471.37 104.55 472.353 105.275C473.336 106 474.458 106.515 475.649 106.787C478.875 107.499 480.488 104.533 479.601 101.553C478.808 98.8692 476.16 95.2591 472.88 95.8764C472.178 96.0209 471.52 96.3314 470.963 96.7818C470.405 97.2322 469.964 97.8095 469.675 98.4653C469.387 99.1211 469.26 99.8363 469.306 100.551C469.351 101.266 469.568 101.959 469.937 102.573Z" fill="#CF6F64"/>
<path d="M475.272 78.9132C470.245 81.2082 468.471 101.151 474.788 104.104C481.105 107.056 484.788 74.5515 475.272 78.9132Z" fill="#263238"/>
<path d="M501.392 91.541C500.182 101.553 500.048 107.444 494.672 112.571C493.006 114.272 490.902 115.481 488.591 116.063C486.281 116.645 483.854 116.579 481.579 115.871C479.305 115.163 477.27 113.84 475.7 112.05C474.13 110.26 473.087 108.072 472.684 105.727C471.058 96.7348 473.302 81.8781 483.355 77.8922C485.468 76.9618 487.79 76.6126 490.083 76.8806C492.376 77.1487 494.556 78.0242 496.396 79.4166C498.236 80.8089 499.669 82.6674 500.548 84.7992C501.426 86.9311 501.718 89.2588 501.392 91.541Z" fill="#E58A7B"/>
<path d="M484.873 84.0927C492.318 82.2004 497.789 80.912 495.826 87.099C493.232 95.3661 490.114 103.365 494.294 103.727C496.848 103.955 508.137 99.1776 506.699 94.3327C505.449 90.1186 510.731 88.9644 511.672 86.8305C515.153 79.1002 505.194 80.1202 506.968 75.423C508.742 70.7258 498.904 63.1565 493.528 66.9277C484.779 73.0207 469.766 72.9268 477.655 62.9015C483.314 55.7483 473.22 57.2112 473.22 57.2112C473.22 57.2112 479.322 60.8213 469.054 66.4043C458.194 72.3631 468.153 88.3739 484.873 84.0927Z" fill="#263238"/>
<path d="M505.342 102.573C503.872 104.697 501.664 106.199 499.146 106.787C495.826 107.499 494.55 104.533 495.799 101.553C496.915 98.8692 499.979 95.2591 503.151 95.8764C506.323 96.4938 507.049 99.9429 505.342 102.573Z" fill="#E58A7B"/>
<path d="M456.154 218.676C456.154 218.676 447.068 299.871 446.356 330.685C445.63 362.733 477.147 462.73 477.147 462.73L493.275 456.02C493.275 456.02 474.459 364.652 477.147 333.181C479.996 298.864 491.77 218.729 491.77 218.729L456.154 218.676Z" fill="#402A2E"/>
<path opacity="0.2" d="M478.725 240.966C471.481 255.97 476.36 285.643 480.284 303.224C481.776 290.81 483.55 277.336 485.23 264.868C485.069 245.704 483.577 230.901 478.725 240.966Z" fill="black"/>
<path d="M492.561 450.705C492.641 450.705 494.469 455.832 494.469 455.832L475.868 463.643L472.938 458.194L492.561 450.705Z" fill="#402A2E"/>
<path d="M475.359 218.676C475.359 218.676 482.308 295.898 486.904 324.82C491.958 356.506 511.768 462.033 511.768 462.033H530.302C530.302 462.033 519.201 359.069 517.104 327.692C514.819 293.657 510.277 218.676 510.277 218.676H475.359Z" fill="#402A2E"/>
<path d="M530.584 457.214C530.665 457.214 531.202 462.381 531.202 462.381H510.827L509.375 456.449L530.584 457.214Z" fill="#402A2E"/>
<path opacity="0.2" d="M523.483 451.094C523.441 451.094 523.4 451.08 523.368 451.052C523.336 451.025 523.315 450.988 523.308 450.946C523.201 450.007 513.188 357.001 511.306 328.818C509.263 298.246 505.15 230.431 505.11 229.747C505.108 229.724 505.111 229.702 505.118 229.681C505.125 229.66 505.137 229.64 505.152 229.624C505.167 229.608 505.186 229.595 505.206 229.586C505.227 229.577 505.249 229.572 505.271 229.572C505.315 229.572 505.358 229.589 505.39 229.619C505.423 229.648 505.443 229.689 505.446 229.733C505.446 230.418 509.599 298.179 511.642 328.805C513.524 356.988 523.537 449.926 523.631 450.933C523.635 450.955 523.634 450.978 523.628 450.999C523.623 451.021 523.613 451.042 523.599 451.059C523.585 451.077 523.567 451.092 523.547 451.102C523.528 451.113 523.506 451.119 523.483 451.121V451.094Z" fill="black"/>
<path d="M486.013 94.3317C486.013 95.1504 485.502 95.808 484.965 95.808C484.427 95.808 484.037 95.1504 484.091 94.3317C484.145 93.5131 484.602 92.8555 485.139 92.8555C485.677 92.8555 486.067 93.5265 486.013 94.3317Z" fill="#263238"/>
<path d="M476.798 94.3317C476.798 95.1504 476.273 95.808 475.749 95.808C475.225 95.808 474.822 95.1504 474.862 94.3317C474.902 93.5131 475.386 92.8555 475.924 92.8555C476.462 92.8555 476.851 93.5265 476.798 94.3317Z" fill="#263238"/>
<path d="M479.699 94.748C478.577 97.2479 477.131 99.5897 475.398 101.713C476.742 103.055 479.256 102.438 479.256 102.438L479.699 94.748Z" fill="#DF5753"/>
<path d="M479.94 105.862C479.909 105.862 479.878 105.856 479.849 105.844C479.821 105.831 479.795 105.813 479.773 105.791C479.752 105.768 479.735 105.741 479.725 105.712C479.714 105.683 479.709 105.652 479.711 105.621C479.715 105.555 479.743 105.494 479.791 105.449C479.838 105.404 479.901 105.379 479.967 105.379C480.995 105.386 482.011 105.163 482.942 104.727C483.872 104.29 484.692 103.651 485.343 102.856C485.389 102.815 485.449 102.793 485.511 102.793C485.573 102.793 485.632 102.815 485.679 102.856C485.722 102.901 485.747 102.961 485.747 103.024C485.747 103.086 485.722 103.146 485.679 103.191C484.983 104.036 484.106 104.714 483.113 105.177C482.12 105.639 481.035 105.873 479.94 105.862Z" fill="#263238"/>
<path d="M487.657 91.8639C487.592 91.8969 487.521 91.9141 487.448 91.9141C487.376 91.9141 487.305 91.8969 487.24 91.8639C486.737 91.5394 486.165 91.3375 485.57 91.2745C484.974 91.2116 484.373 91.2894 483.813 91.5016C483.758 91.5288 483.699 91.5449 483.638 91.5488C483.577 91.5527 483.516 91.5444 483.458 91.5244C483.401 91.5044 483.348 91.4731 483.302 91.4323C483.257 91.3915 483.22 91.342 483.195 91.2868C483.145 91.1674 483.143 91.0333 483.191 90.9129C483.239 90.7926 483.332 90.6956 483.45 90.6427C484.153 90.3561 484.914 90.2431 485.67 90.3132C486.426 90.3832 487.153 90.6344 487.791 91.0453C487.843 91.0803 487.887 91.1251 487.921 91.1772C487.955 91.2293 487.978 91.2877 487.989 91.3488C488.001 91.41 488 91.4728 487.986 91.5336C487.973 91.5944 487.948 91.6519 487.912 91.7029C487.844 91.7798 487.756 91.8357 487.657 91.8639Z" fill="#263238"/>
<path d="M473.228 89.1782C473.156 89.1609 473.091 89.1237 473.04 89.0708C472.995 89.0271 472.959 88.9749 472.935 88.9173C472.911 88.8597 472.898 88.7978 472.898 88.7353C472.898 88.6728 472.911 88.611 472.935 88.5534C472.959 88.4957 472.995 88.4436 473.04 88.3998C473.555 87.8229 474.196 87.3725 474.914 87.0839C475.632 86.7952 476.408 86.676 477.179 86.7356C477.241 86.7452 477.3 86.7673 477.353 86.8006C477.406 86.8339 477.452 86.8777 477.487 86.9293C477.522 86.9809 477.547 87.0391 477.558 87.1005C477.57 87.1618 477.569 87.2249 477.556 87.2859C477.527 87.4102 477.454 87.5197 477.35 87.5938C477.246 87.6679 477.118 87.7016 476.991 87.6885C476.38 87.6501 475.769 87.751 475.203 87.9835C474.637 88.216 474.132 88.5741 473.725 89.0306C473.664 89.0985 473.585 89.1482 473.497 89.1743C473.41 89.2003 473.316 89.2017 473.228 89.1782Z" fill="#263238"/>
<path d="M523.799 144.03L509.822 140.312C509.822 140.312 496.113 174.012 491.261 176.199C484.675 179.206 467.996 189.62 460.9 194.545C460.51 196.223 460.819 200.665 461.707 201.886C473.803 199.685 496.96 190.788 501.798 186.265C512.832 175.944 523.799 144.03 523.799 144.03Z" fill="#E58A7B"/>
<path d="M514.037 476.298C513.355 476.352 512.675 476.167 512.115 475.775C511.942 475.619 511.813 475.42 511.739 475.199C511.666 474.978 511.652 474.742 511.698 474.513C511.707 474.371 511.754 474.233 511.834 474.115C511.915 473.997 512.026 473.903 512.155 473.842C513.284 473.265 516.443 475.265 516.806 475.493C516.846 475.518 516.876 475.555 516.893 475.598C516.91 475.642 516.913 475.69 516.9 475.735C516.888 475.782 516.865 475.825 516.832 475.86C516.799 475.895 516.758 475.921 516.712 475.936C515.836 476.151 514.939 476.272 514.037 476.298ZM512.693 474.205C512.591 474.182 512.486 474.182 512.384 474.205C512.332 474.231 512.29 474.271 512.261 474.322C512.232 474.372 512.219 474.429 512.223 474.487C512.187 474.643 512.193 474.806 512.24 474.959C512.287 475.112 512.374 475.25 512.491 475.359C513.016 475.829 514.333 475.882 516.067 475.547C515.034 474.868 513.872 474.411 512.653 474.205H512.693Z" fill="#402A2E"/>
<path d="M516.647 475.936C516.612 475.947 516.575 475.947 516.54 475.936C515.532 475.372 513.637 473.158 513.919 472.031C513.961 471.852 514.062 471.693 514.206 471.578C514.35 471.464 514.528 471.401 514.712 471.4C514.892 471.376 515.076 471.391 515.25 471.444C515.424 471.497 515.584 471.588 515.72 471.708C516.836 472.661 516.903 475.587 516.903 475.735C516.909 475.779 516.901 475.824 516.879 475.863C516.857 475.902 516.823 475.932 516.782 475.949C516.737 475.959 516.69 475.954 516.647 475.936ZM514.846 471.843H514.752C514.443 471.843 514.403 472.017 514.389 472.084C514.228 472.742 515.424 474.419 516.419 475.211C516.414 474.078 516.063 472.972 515.411 472.044C515.255 471.908 515.053 471.836 514.846 471.843Z" fill="#402A2E"/>
<path d="M478.354 474.621C477.531 474.907 476.636 474.907 475.813 474.621C475.627 474.52 475.468 474.373 475.353 474.195C475.238 474.017 475.17 473.813 475.155 473.601C475.138 473.468 475.155 473.333 475.204 473.209C475.254 473.085 475.334 472.975 475.437 472.89C476.512 471.923 480.907 472.89 481.405 473.078C481.452 473.09 481.494 473.118 481.523 473.157C481.552 473.196 481.567 473.243 481.566 473.292C481.568 473.343 481.555 473.392 481.529 473.435C481.502 473.478 481.464 473.513 481.418 473.534C480.428 473.98 479.403 474.344 478.354 474.621ZM476.163 473.024C476.009 473.055 475.866 473.124 475.746 473.225C475.703 473.257 475.671 473.301 475.651 473.35C475.632 473.4 475.628 473.455 475.639 473.507C475.647 473.648 475.691 473.784 475.767 473.904C475.842 474.023 475.946 474.122 476.069 474.191C476.781 474.567 478.434 474.272 480.571 473.373C479.132 473.01 477.642 472.892 476.163 473.024Z" fill="#402A2E"/>
<path d="M481.377 473.532H481.269C479.925 473.291 477.237 471.747 477.156 470.593C477.156 470.325 477.277 469.949 477.922 469.734C478.14 469.657 478.372 469.624 478.603 469.638C478.834 469.652 479.059 469.712 479.266 469.815C480.718 470.526 481.484 473.103 481.524 473.224C481.534 473.264 481.533 473.307 481.521 473.347C481.509 473.387 481.487 473.423 481.457 473.452C481.437 473.485 481.41 473.512 481.377 473.532ZM478.191 470.137H478.057C477.64 470.285 477.64 470.459 477.64 470.513C477.64 471.211 479.589 472.486 480.946 472.915C480.634 471.837 479.972 470.893 479.065 470.231C478.795 470.094 478.484 470.06 478.191 470.137Z" fill="#402A2E"/>
<path d="M462.035 193.754L448.017 200.196L446.391 204.222L451.565 207.698C451.565 207.698 461.242 206.651 463.998 200.437L462.035 193.754Z" fill="#E58A7B"/>
<path d="M462.631 202.114C462.318 199.424 461.428 196.834 460.023 194.518L462.241 192.854C463.909 195.522 464.974 198.522 465.359 201.644L462.631 202.114Z" fill="#263238"/>
<path d="M465.019 195.659C465.315 196.124 465.461 196.669 465.436 197.22C465.411 197.771 465.217 198.301 464.879 198.738C464.542 199.175 464.078 199.497 463.551 199.661C463.023 199.826 462.458 199.824 461.932 199.656C461.406 199.488 460.944 199.162 460.61 198.723C460.276 198.284 460.085 197.752 460.064 197.201C460.043 196.65 460.193 196.106 460.493 195.643C460.792 195.179 461.228 194.819 461.74 194.612C462.314 194.32 462.981 194.266 463.595 194.462C464.209 194.658 464.721 195.088 465.019 195.659Z" fill="#263238"/>
<path d="M438.547 205.403L440.415 207.281L452.995 201.913L448.022 200.195L438.547 205.403Z" fill="#E58A7B"/>
<path opacity="0.2" d="M492.561 450.705C492.641 450.705 494.469 455.832 494.469 455.832L475.868 463.643L472.938 458.194L492.561 450.705Z" fill="black"/>
<path opacity="0.2" d="M530.584 457.214C530.665 457.214 531.202 462.381 531.202 462.381H510.827L509.375 456.449L530.584 457.214Z" fill="black"/>
<path d="M527.437 140.165C531.133 152.069 516.685 168.348 516.685 168.348L496.727 160.215C499.092 153.335 501.82 146.584 504.898 139.99C511.027 126.798 523.701 128.153 527.437 140.165Z" fill="#402A2E"/>
<path opacity="0.2" d="M527.437 140.165C531.133 152.069 516.685 168.348 516.685 168.348L496.727 160.215C499.092 153.335 501.82 146.584 504.898 139.99C511.027 126.798 523.701 128.153 527.437 140.165Z" fill="black"/>
<path d="M329.12 20.8945H320.531V22.2769H329.12V20.8945Z" fill="#402A2E"/>
<path d="M440.289 75.6054L439.25 98.6387L440.633 98.7009L441.672 75.6676L440.289 75.6054Z" fill="#402A2E"/>
<path d="M437.623 27.0957H279.031L264.273 356.868H422.865L437.623 27.0957Z" fill="#402A2E"/>
<path opacity="0.56" d="M432.888 31.6309H274.296L259.539 361.403H418.131L432.888 31.6309Z" fill="#FAFAFA"/>
<path opacity="0.07" d="M428.159 36.1543H269.567L254.797 365.927H413.389L428.159 36.1543Z" fill="#402A2E"/>
<path d="M410.114 179.982H274.746L273.617 205.213H408.985L410.114 179.982Z" fill="white"/>
<path d="M349.184 161.57H275.56L275.062 172.857H348.687L349.184 161.57Z" fill="#402A2E"/>
<path d="M407.059 248.08H271.691L270.562 273.311H405.93L407.059 248.08Z" fill="white"/>
<path opacity="0.47" d="M382.23 307.385H291.201L289.844 337.622H380.873L382.23 307.385Z" fill="#402A2E"/>
<path d="M376.144 342.318H285.115C285.076 342.329 285.034 342.329 284.994 342.318C284.981 342.279 284.981 342.237 284.994 342.198L286.338 311.947C286.338 311.927 286.342 311.906 286.351 311.888C286.359 311.869 286.371 311.852 286.386 311.838C286.401 311.824 286.419 311.813 286.439 311.807C286.458 311.8 286.479 311.798 286.5 311.8H377.529C377.545 311.791 377.564 311.787 377.583 311.787C377.601 311.787 377.62 311.791 377.636 311.8C377.646 311.816 377.651 311.835 377.651 311.853C377.651 311.872 377.646 311.891 377.636 311.907L376.319 342.224C376.303 342.256 376.278 342.282 376.246 342.298C376.215 342.315 376.18 342.322 376.144 342.318ZM285.277 341.996H375.983L377.327 312.068H286.621L285.277 341.996Z" fill="white"/>
<path d="M333.289 229.666H272.513L272.016 240.966H332.778L333.289 229.666Z" fill="#402A2E"/>
<path d="M380.502 98.4789C380.155 105.822 377.54 112.877 373.016 118.677C369.667 123.058 365.358 126.614 360.419 129.073C355.48 131.532 350.042 132.828 344.523 132.863C340.063 132.897 335.644 132.018 331.537 130.282C327.43 128.546 323.722 125.989 320.642 122.767C317.563 119.546 315.176 115.729 313.629 111.552C312.082 107.375 311.409 102.926 311.649 98.4789C312.122 89.2509 316.107 80.5517 322.79 74.1605C329.473 67.7692 338.348 64.1687 347.601 64.0952C352.064 64.0536 356.489 64.9264 360.601 66.6596C364.713 68.3928 368.425 70.9496 371.509 74.172C374.592 77.3945 376.981 81.2141 378.528 85.3948C380.075 89.5755 380.747 94.0286 380.502 98.4789Z" fill="white"/>
<path d="M383.737 71.2885C383.65 73.241 382.954 75.1175 381.748 76.6568C380.856 77.8203 379.709 78.7649 378.395 79.4185C377.081 80.072 375.636 80.4173 374.168 80.428C372.746 80.4366 371.343 80.0974 370.083 79.44C368.822 78.7826 367.742 77.8271 366.937 76.6568C365.87 75.0754 365.343 73.193 365.432 71.2885C365.561 68.8385 366.623 66.5302 368.398 64.8343C370.174 63.1385 372.531 62.183 374.988 62.1625C376.173 62.1517 377.348 62.3833 378.44 62.8432C379.533 63.3031 380.519 63.9814 381.339 64.8364C382.158 65.6914 382.794 66.705 383.207 67.8146C383.619 68.9243 383.8 70.1065 383.737 71.2885Z" fill="#402A2E"/>
<path d="M289.329 192.599C289.264 193.68 288.791 194.697 288.006 195.444C287.22 196.191 286.18 196.613 285.095 196.625C284.571 196.631 284.052 196.53 283.568 196.328C283.085 196.125 282.649 195.826 282.286 195.449C281.923 195.072 281.642 194.624 281.459 194.134C281.276 193.643 281.196 193.121 281.224 192.599C281.282 191.515 281.753 190.494 282.54 189.746C283.327 188.998 284.371 188.578 285.458 188.572C285.981 188.568 286.5 188.671 286.982 188.873C287.464 189.076 287.9 189.375 288.262 189.752C288.625 190.129 288.906 190.576 289.09 191.066C289.273 191.555 289.354 192.077 289.329 192.599Z" fill="#263238"/>
<path d="M307.44 192.599C307.379 193.681 306.907 194.7 306.121 195.448C305.334 196.196 304.292 196.616 303.207 196.625C302.684 196.629 302.166 196.527 301.684 196.324C301.203 196.121 300.768 195.821 300.406 195.444C300.045 195.067 299.765 194.62 299.583 194.131C299.401 193.641 299.322 193.12 299.349 192.599C299.407 191.517 299.876 190.499 300.66 189.751C301.444 189.003 302.485 188.581 303.569 188.573C304.093 188.566 304.613 188.667 305.096 188.87C305.579 189.072 306.016 189.371 306.378 189.748C306.741 190.126 307.023 190.573 307.205 191.064C307.388 191.554 307.468 192.076 307.44 192.599Z" fill="#263238"/>
<path d="M325.57 192.599C325.509 193.681 325.037 194.7 324.251 195.448C323.464 196.196 322.422 196.616 321.336 196.625C320.813 196.629 320.294 196.527 319.812 196.324C319.33 196.121 318.894 195.822 318.532 195.445C318.17 195.068 317.888 194.621 317.705 194.132C317.521 193.642 317.44 193.121 317.466 192.599C317.527 191.516 317.999 190.498 318.785 189.75C319.571 189.002 320.613 188.581 321.699 188.573C322.223 188.566 322.743 188.667 323.226 188.87C323.709 189.072 324.145 189.371 324.508 189.748C324.871 190.126 325.152 190.573 325.335 191.064C325.518 191.554 325.598 192.076 325.57 192.599Z" fill="#263238"/>
<path d="M286.273 260.694C286.209 261.776 285.736 262.793 284.95 263.54C284.165 264.287 283.124 264.709 282.04 264.72C281.516 264.725 280.998 264.622 280.515 264.419C280.033 264.217 279.597 263.917 279.235 263.54C278.873 263.164 278.591 262.717 278.408 262.227C278.224 261.738 278.143 261.216 278.169 260.694C278.23 259.612 278.702 258.593 279.488 257.845C280.275 257.097 281.317 256.677 282.402 256.668C282.926 256.664 283.444 256.766 283.927 256.969C284.409 257.172 284.845 257.471 285.207 257.848C285.569 258.225 285.851 258.672 286.034 259.161C286.218 259.651 286.299 260.172 286.273 260.694Z" fill="#263238"/>
<path d="M304.393 260.694C304.332 261.775 303.862 262.791 303.079 263.539C302.295 264.286 301.257 264.709 300.173 264.72C299.649 264.727 299.13 264.626 298.647 264.423C298.163 264.221 297.727 263.922 297.364 263.545C297.001 263.167 296.72 262.72 296.537 262.229C296.355 261.739 296.275 261.217 296.302 260.694C296.364 259.612 296.835 258.593 297.622 257.845C298.408 257.097 299.45 256.677 300.536 256.668C301.059 256.664 301.577 256.766 302.058 256.969C302.54 257.172 302.975 257.472 303.336 257.849C303.697 258.226 303.978 258.673 304.159 259.162C304.341 259.652 304.421 260.173 304.393 260.694Z" fill="#263238"/>
<path d="M322.562 260.694C322.5 261.777 322.028 262.796 321.242 263.543C320.456 264.291 319.414 264.712 318.328 264.721C317.805 264.723 317.287 264.619 316.806 264.416C316.325 264.212 315.89 263.913 315.528 263.536C315.166 263.16 314.884 262.714 314.7 262.225C314.516 261.737 314.433 261.216 314.457 260.694C314.522 259.613 314.994 258.596 315.78 257.849C316.566 257.102 317.606 256.68 318.691 256.668C319.215 256.662 319.734 256.763 320.217 256.965C320.701 257.168 321.137 257.467 321.5 257.844C321.863 258.221 322.144 258.669 322.327 259.159C322.509 259.65 322.589 260.172 322.562 260.694Z" fill="#263238"/>
<path d="M340.655 260.694C340.591 261.776 340.118 262.793 339.332 263.54C338.547 264.287 337.507 264.709 336.422 264.72C335.899 264.723 335.381 264.619 334.9 264.416C334.419 264.212 333.984 263.913 333.622 263.536C333.26 263.16 332.978 262.714 332.794 262.225C332.61 261.737 332.527 261.216 332.551 260.694C332.615 259.613 333.088 258.596 333.874 257.849C334.66 257.102 335.7 256.68 336.785 256.668C337.308 256.664 337.827 256.766 338.309 256.969C338.791 257.172 339.227 257.471 339.589 257.848C339.951 258.225 340.233 258.672 340.416 259.161C340.6 259.651 340.681 260.172 340.655 260.694Z" fill="#263238"/>
<path d="M358.844 260.694C358.78 261.776 358.307 262.793 357.521 263.54C356.736 264.287 355.695 264.709 354.611 264.72C354.087 264.727 353.567 264.626 353.084 264.423C352.601 264.221 352.164 263.922 351.802 263.545C351.439 263.167 351.157 262.72 350.975 262.229C350.792 261.739 350.712 261.217 350.74 260.694C350.801 259.612 351.273 258.593 352.059 257.845C352.846 257.097 353.888 256.677 354.973 256.668C355.497 256.664 356.015 256.766 356.498 256.969C356.98 257.172 357.416 257.471 357.778 257.848C358.14 258.225 358.422 258.672 358.605 259.161C358.789 259.651 358.87 260.172 358.844 260.694Z" fill="#263238"/>
<path d="M356.099 96.6892C361.724 91.1959 362.023 82.3909 356.766 77.0226C351.508 71.6544 342.686 71.7557 337.061 77.2489C331.435 82.7422 331.137 91.5472 336.394 96.9154C341.651 102.284 350.473 102.182 356.099 96.6892Z" fill="#402A2E"/>
<path d="M373.016 118.678C369.667 123.059 365.358 126.615 360.419 129.074C355.479 131.533 350.042 132.829 344.523 132.864C339.171 132.909 333.891 131.639 329.147 129.165C324.403 126.691 320.341 123.089 317.32 118.678C323.852 112.182 334.188 107.941 345.638 107.941C357.089 107.941 367.062 112.182 373.016 118.678Z" fill="#402A2E"/>
<path opacity="0.1" d="M356.099 96.6892C361.724 91.1959 362.023 82.3909 356.766 77.0226C351.508 71.6544 342.686 71.7557 337.061 77.2489C331.435 82.7422 331.137 91.5472 336.394 96.9154C341.651 102.284 350.473 102.182 356.099 96.6892Z" fill="white"/>
<path opacity="0.1" d="M373.016 118.678C369.667 123.059 365.358 126.615 360.419 129.074C355.479 131.533 350.042 132.829 344.523 132.864C339.171 132.909 333.891 131.639 329.147 129.165C324.403 126.691 320.341 123.089 317.32 118.678C323.852 112.182 334.188 107.941 345.638 107.941C357.089 107.941 367.062 112.182 373.016 118.678Z" fill="white"/>
<path d="M175.271 211.295C173.994 214.086 172.65 217.159 171.481 220.139C170.312 223.118 169.115 226.192 168.081 229.251C165.968 235.282 164.358 241.476 163.269 247.772L162.973 249.745C162.945 250.083 162.977 250.424 163.067 250.751C163.385 251.864 163.884 252.916 164.546 253.865C166.272 256.322 168.274 258.573 170.513 260.575C172.874 262.768 175.351 264.833 177.932 266.762C180.513 268.748 183.227 270.681 185.902 272.506L183.389 277.217C177.002 274.438 170.94 270.968 165.312 266.87C162.309 264.683 159.599 262.121 157.248 259.247C155.854 257.536 154.768 255.597 154.036 253.516C153.61 252.216 153.393 250.857 153.391 249.49C153.391 249.168 153.391 248.698 153.391 248.47V247.812L153.525 246.47C154.296 239.478 155.768 232.581 157.92 225.883C158.968 222.581 160.084 219.293 161.361 216.086C162.637 212.878 163.954 209.738 165.581 206.477L175.271 211.295Z" fill="#E58A7B"/>
<path d="M184.008 271.676L193.51 266.871L191.051 277.285C191.051 277.285 184.532 279.111 181.508 275.943L184.008 271.676Z" fill="#E58A7B"/>
<path d="M202.202 268.576L199.676 277.192L191.047 277.285L193.506 266.871L202.202 268.576Z" fill="#E58A7B"/>
<path d="M215.621 161.049C216.129 162.909 216.836 164.709 217.731 166.417C217.469 166.713 217.133 166.933 216.757 167.053C216.381 167.174 215.979 167.19 215.594 167.102L215.621 161.049Z" fill="#DF5753"/>
<path d="M215.336 161.128C215.893 161.128 216.344 160.437 216.344 159.584C216.344 158.732 215.893 158.041 215.336 158.041C214.779 158.041 214.328 158.732 214.328 159.584C214.328 160.437 214.779 161.128 215.336 161.128Z" fill="#263238"/>
<path d="M215.039 158.095L217.082 157.518C217.082 157.518 216.087 159.101 215.039 158.095Z" fill="#263238"/>
<path d="M189.373 170.898C190.596 177.139 191.819 188.587 187.438 192.761C187.438 192.761 189.158 199.095 200.784 199.095C213.566 199.095 206.886 192.761 206.886 192.761C199.91 191.097 200.085 185.93 201.308 181.071L189.373 170.898Z" fill="#E58A7B"/>
<path d="M185.971 156.673C186.616 167.101 186.67 171.529 191.939 176.884C199.882 184.937 212.569 181.877 215.055 171.516C217.3 162.121 215.875 146.661 205.647 142.514C203.402 141.59 200.959 141.254 198.547 141.537C196.135 141.819 193.836 142.712 191.866 144.129C189.896 145.547 188.321 147.442 187.289 149.637C186.258 151.832 185.804 154.254 185.971 156.673Z" fill="#E58A7B"/>
<path d="M187.001 144.944C181.759 146.849 174.77 145.427 177.512 161.572C180.415 178.67 175.953 184.293 175.953 184.293C175.953 184.293 195.831 188.521 216.125 184.038C216.125 184.038 209.929 173.221 211.663 165.249C213.881 155.184 212.134 151.466 212.134 151.466C212.134 151.466 194.366 142.26 187.001 144.944Z" fill="#263238"/>
<path d="M209.18 162.108C209.185 164.09 209.754 166.031 210.819 167.704C212.244 169.878 213.924 169.046 214.341 166.738C214.717 164.711 214.435 161.128 212.62 159.732C210.806 158.336 209.207 159.705 209.18 162.108Z" fill="#E58A7B"/>
<path d="M182.446 146.701C180.941 142.474 188.118 135.965 203.305 138.649C218.492 141.333 219.151 153.962 219.151 153.962L216.086 150.312L216.221 154.15L200.617 157.143L182.446 146.701Z" fill="#263238"/>
<path d="M183.736 193.472C183.646 192.86 183.8 192.236 184.164 191.735C184.528 191.233 185.074 190.894 185.685 190.788C190.416 190.01 201.168 188.426 206.57 189.178C210.602 189.741 211.651 192.077 211.826 193.996C211.853 194.332 211.808 194.67 211.694 194.987C211.579 195.304 211.398 195.593 211.163 195.835C210.927 196.076 210.642 196.265 210.328 196.387C210.013 196.51 209.676 196.564 209.339 196.546L185.98 195.499C185.43 195.471 184.906 195.254 184.497 194.885C184.088 194.516 183.819 194.017 183.736 193.472Z" fill="#402A2E"/>
<path opacity="0.6" d="M183.736 193.472C183.646 192.86 183.8 192.236 184.164 191.735C184.528 191.233 185.074 190.894 185.685 190.788C190.416 190.01 201.168 188.426 206.57 189.178C210.602 189.741 211.651 192.077 211.826 193.996C211.853 194.332 211.808 194.67 211.694 194.987C211.579 195.304 211.398 195.593 211.163 195.835C210.927 196.076 210.642 196.265 210.328 196.387C210.013 196.51 209.676 196.564 209.339 196.546L185.98 195.499C185.43 195.471 184.906 195.254 184.497 194.885C184.088 194.516 183.819 194.017 183.736 193.472Z" fill="black"/>
<path d="M197.242 427.932L205.911 433.944L220.414 414.31L211.744 408.311L197.242 427.932Z" fill="#E58A7B"/>
<path d="M177.031 427.543L186.184 432.75L199.02 411.988L189.867 406.781L177.031 427.543Z" fill="#E58A7B"/>
<path d="M220.4 414.31L212.927 424.429L204.258 418.43L211.731 408.311L220.4 414.31Z" fill="#CF6F64"/>
<path d="M189.847 406.781L199.014 412.002L192.401 422.698L183.234 417.478L189.847 406.781Z" fill="#CF6F64"/>
<path d="M204.559 259.02C204.559 259.02 238.401 301.603 232.043 342.335C226.923 375.229 197.22 419.772 197.22 419.772L183.256 412.847C193.099 393.153 201.499 372.771 208.389 351.864C210.514 345.373 211.134 338.484 210.203 331.719C209.271 324.953 206.813 318.487 203.013 312.81C185.864 287.807 158.392 302.69 176.872 259.02H204.559Z" fill="#402A2E"/>
<path opacity="0.6" d="M204.559 259.02C204.559 259.02 238.401 301.603 232.043 342.335C226.923 375.229 197.22 419.772 197.22 419.772L183.256 412.847C193.099 393.153 201.499 372.771 208.389 351.864C210.514 345.373 211.134 338.484 210.203 331.719C209.271 324.953 206.813 318.487 203.013 312.81C185.864 287.807 158.392 302.69 176.872 259.02H204.559Z" fill="black"/>
<path opacity="0.4" d="M221.154 286.37L216.234 281.484C216.234 281.874 225.764 340.616 228.438 357.123C230.017 352.301 231.225 347.366 232.054 342.361C235.199 322.377 228.627 301.964 221.154 286.37Z" fill="black"/>
<path d="M219.661 259.02C219.661 259.02 260.411 312.541 261.567 344.63C262.521 371.471 217.215 423.476 217.215 423.476L204.044 414.968C204.044 414.968 230.561 378.034 237.241 347.864C234.66 317.963 180.094 259.02 180.094 259.02H219.661Z" fill="#402A2E"/>
<path opacity="0.6" d="M219.661 259.02C219.661 259.02 260.411 312.541 261.567 344.63C262.521 371.471 217.215 423.476 217.215 423.476L204.044 414.968C204.044 414.968 230.561 378.034 237.241 347.864C234.66 317.963 180.094 259.02 180.094 259.02H219.661Z" fill="black"/>
<path d="M169.253 195.149C164.899 196.183 160.719 211.992 160.719 211.992L177.748 223.346C177.748 223.346 183.42 210.838 181.431 205.363C179.374 199.659 174.724 193.848 169.253 195.149Z" fill="#402A2E"/>
<path opacity="0.2" d="M172.581 205.336L171.398 219.119L177.729 223.36C179.477 219.431 180.771 215.315 181.586 211.093L172.581 205.336Z" fill="black"/>
<path d="M224.703 195.459C224.703 195.459 229.73 197.217 219.663 259.006H176.844C177.569 241.559 177.583 230.823 169.25 195.151C175.246 193.917 181.323 193.118 187.434 192.762C193.909 192.298 200.408 192.298 206.882 192.762C215.242 193.527 224.703 195.459 224.703 195.459Z" fill="#402A2E"/>
<path d="M229.055 205.337C230.022 208.021 231.044 210.906 232.119 213.684C233.194 216.463 234.216 219.321 235.304 222.139L238.597 230.568L239.43 232.675L239.86 233.722L240.062 234.245C240.062 234.339 240.062 234.339 240.062 234.325C239.816 233.98 239.495 233.695 239.121 233.493C238.59 233.181 237.99 233.001 237.374 232.97C236.862 232.954 236.353 233.05 235.882 233.252C235.264 233.534 235.264 233.654 235.277 233.641C235.389 233.552 235.489 233.448 235.573 233.332C236.317 232.357 236.961 231.309 237.495 230.205C238.127 228.971 238.732 227.655 239.336 226.327C240.519 223.643 241.608 220.865 242.696 218.06C243.785 215.255 244.82 212.423 245.828 209.564L248.892 201.002L254.067 202.344C253.045 208.464 251.728 214.423 250.142 220.489C249.376 223.508 248.475 226.501 247.454 229.521C246.943 231.037 246.379 232.54 245.734 234.084C245.061 235.759 244.233 237.367 243.261 238.888C242.903 239.4 242.508 239.885 242.078 240.338C241.392 241.078 240.559 241.668 239.632 242.069C238.81 242.422 237.919 242.587 237.025 242.552C236.023 242.515 235.047 242.224 234.189 241.707C233.176 241.076 232.336 240.204 231.743 239.17C231.541 238.821 231.366 238.472 231.245 238.217L230.99 237.707L230.479 236.661L229.458 234.58C228.114 231.789 226.77 228.971 225.601 226.139C224.431 223.307 223.195 220.435 222.039 217.55C220.883 214.664 219.848 211.779 218.867 208.665L229.055 205.337Z" fill="#E58A7B"/>
<path d="M224.703 195.459C229.85 196.68 235.643 211.872 235.643 211.872L220.334 224.877C220.334 224.877 210.429 208.316 212.431 202.854C214.515 197.163 217.982 193.862 224.703 195.459Z" fill="#402A2E"/>
<path d="M251.323 196.197L256.699 191.715L260.436 197.526L257.681 202.371C257.681 202.371 253.299 206.397 249.428 204.344C248.814 202.965 248.666 201.423 249.008 199.953C249.35 198.483 250.163 197.165 251.323 196.197Z" fill="#E58A7B"/>
<path d="M266.408 191.728L266.005 193.191L257.497 194.614L256.664 191.715L266.408 191.728Z" fill="#E58A7B"/>
<path d="M218.263 424.161L202.914 414.256L205.669 409.479L222.914 420.067L218.263 424.161Z" fill="#402A2E"/>
<path d="M192.187 432.051C190.84 431.887 189.546 431.429 188.397 430.709C188.349 430.692 188.308 430.662 188.279 430.621C188.25 430.58 188.234 430.531 188.234 430.481C188.234 430.431 188.25 430.382 188.279 430.341C188.308 430.3 188.349 430.269 188.397 430.253C188.813 430.118 192.429 429.005 193.477 429.863C193.595 429.961 193.685 430.089 193.737 430.233C193.789 430.377 193.801 430.532 193.773 430.682C193.754 430.924 193.674 431.157 193.54 431.359C193.406 431.561 193.222 431.725 193.007 431.836C192.755 431.973 192.474 432.047 192.187 432.051ZM189.163 430.575C190.843 431.434 192.187 431.742 192.832 431.42C192.973 431.343 193.091 431.23 193.176 431.094C193.26 430.958 193.309 430.802 193.316 430.642C193.316 430.427 193.316 430.333 193.195 430.279C192.631 429.823 190.614 430.172 189.136 430.575H189.163Z" fill="#263238"/>
<path d="M188.492 430.804C188.421 430.803 188.354 430.774 188.304 430.723C188.284 430.686 188.273 430.645 188.273 430.602C188.273 430.56 188.284 430.519 188.304 430.482C188.304 430.361 189.178 427.449 190.548 426.791C190.724 426.711 190.914 426.67 191.106 426.67C191.299 426.67 191.489 426.711 191.664 426.791C191.853 426.85 192.016 426.971 192.128 427.134C192.24 427.297 192.294 427.493 192.282 427.69C192.188 428.898 189.729 430.562 188.6 430.844L188.492 430.804ZM191.1 427.14C190.969 427.144 190.84 427.176 190.723 427.234C189.89 427.636 189.204 429.207 188.868 430.16C190.051 429.663 191.677 428.348 191.731 427.61C191.731 427.489 191.731 427.341 191.422 427.207C191.322 427.153 191.212 427.117 191.1 427.1V427.14Z" fill="#263238"/>
<path d="M211.369 437.85C209.851 437.85 207.74 435.904 206.584 434.709C206.555 434.668 206.539 434.619 206.539 434.568C206.539 434.518 206.555 434.469 206.584 434.428C206.611 434.384 206.649 434.349 206.694 434.325C206.739 434.302 206.789 434.291 206.84 434.293C207.377 434.293 212.041 434.991 212.7 436.306C212.77 436.424 212.806 436.559 212.806 436.696C212.806 436.833 212.77 436.967 212.7 437.085C212.601 437.29 212.452 437.466 212.266 437.598C212.08 437.729 211.864 437.811 211.638 437.836L211.369 437.85ZM207.472 434.897C209.165 436.535 210.657 437.447 211.504 437.34C211.652 437.32 211.793 437.265 211.915 437.178C212.037 437.092 212.136 436.977 212.203 436.843C212.233 436.797 212.249 436.744 212.249 436.689C212.249 436.634 212.233 436.58 212.203 436.535C211.853 435.81 209.367 435.193 207.472 434.897Z" fill="#263238"/>
<path d="M207.619 434.828C207.318 434.837 207.016 434.814 206.719 434.761C206.677 434.755 206.638 434.738 206.605 434.712C206.572 434.686 206.546 434.652 206.531 434.614C206.51 434.574 206.5 434.53 206.5 434.486C206.5 434.442 206.51 434.398 206.531 434.359C206.611 434.265 208.426 432.077 210.146 431.929C210.633 431.892 211.116 432.046 211.49 432.359C212.014 432.815 211.987 433.218 211.853 433.473C211.517 434.385 209.192 434.828 207.619 434.828ZM207.27 434.332C208.775 434.412 211.181 433.916 211.49 433.258C211.49 433.258 211.598 433.043 211.248 432.748C211.109 432.627 210.947 432.536 210.771 432.481C210.595 432.426 210.41 432.407 210.227 432.426C209.068 432.749 208.036 433.419 207.27 434.345V434.332Z" fill="#263238"/>
<path d="M188.859 429.354L177.462 426.133C177.265 426.074 177.054 426.089 176.868 426.176C176.682 426.262 176.534 426.415 176.454 426.603L172.61 435.233C172.519 435.454 172.477 435.691 172.485 435.93C172.494 436.168 172.552 436.402 172.658 436.617C172.763 436.831 172.913 437.02 173.097 437.173C173.281 437.325 173.495 437.437 173.725 437.501C177.757 438.547 179.693 438.843 184.706 440.279C187.797 441.138 192.205 442.735 196.466 443.943C200.726 445.15 202.151 441.003 200.498 440.118C193.025 436.172 192.434 433.407 190.391 430.455C190.025 429.92 189.483 429.531 188.859 429.354Z" fill="#402A2E"/>
<path d="M206.889 433.139L197.158 426.429C196.993 426.309 196.79 426.254 196.587 426.273C196.383 426.293 196.195 426.387 196.056 426.536L189.604 433.461C189.447 433.64 189.33 433.851 189.26 434.079C189.191 434.306 189.171 434.546 189.201 434.782C189.232 435.018 189.312 435.245 189.437 435.448C189.563 435.651 189.729 435.824 189.927 435.958C193.354 438.253 195.129 439.179 199.416 442.145C202.104 443.97 207.306 448.023 210.935 450.546C214.563 453.069 217.265 449.606 215.975 448.238C210.195 442.078 208.932 438.212 207.978 434.71C207.812 434.074 207.426 433.518 206.889 433.139Z" fill="#402A2E"/>
<path d="M199.001 420.656L181.461 411.946L183.275 407.195L202.011 416.375L199.001 420.656Z" fill="#402A2E"/>
<path d="M176.192 256.496L174.714 260.362C174.566 260.657 174.916 260.965 175.413 260.965H219.872C220.262 260.965 220.585 260.778 220.611 260.536L220.988 256.698C220.988 256.443 220.679 256.215 220.262 256.215H176.891C176.761 256.202 176.629 256.221 176.507 256.271C176.386 256.32 176.278 256.397 176.192 256.496Z" fill="#402A2E"/>
<path opacity="0.4" d="M176.192 256.496L174.714 260.362C174.566 260.657 174.916 260.965 175.413 260.965H219.872C220.262 260.965 220.585 260.778 220.611 260.536L220.988 256.698C220.988 256.443 220.679 256.215 220.262 256.215H176.891C176.761 256.202 176.629 256.221 176.507 256.271C176.386 256.32 176.278 256.397 176.192 256.496Z" fill="white"/>
<path d="M183.2 261.34H182.031C181.803 261.34 181.628 261.22 181.641 261.072L182.192 256.093C182.192 255.959 182.407 255.838 182.636 255.838H183.805C184.034 255.838 184.208 255.959 184.195 256.093L183.644 261.072C183.631 261.22 183.429 261.34 183.2 261.34Z" fill="#402A2E"/>
<path d="M210.617 261.34H209.461C209.232 261.34 209.058 261.22 209.071 261.072L209.609 256.093C209.609 255.959 209.837 255.838 210.066 255.838H211.222C211.45 255.838 211.638 255.959 211.611 256.093L211.074 261.072C211.006 261.22 210.859 261.34 210.617 261.34Z" fill="#402A2E"/>
<g style="mix-blend-mode:multiply">
<path d="M182.178 488.619C202.063 488.619 218.183 487.454 218.183 486.016C218.183 484.578 202.063 483.412 182.178 483.412C162.292 483.412 146.172 484.578 146.172 486.016C146.172 487.454 162.292 488.619 182.178 488.619Z" fill="#F5F5F5"/>
</g>
<path d="M204.114 482.338C197.743 480.486 190.674 478.111 186.4 475.628C186.279 475.548 186.144 475.507 186.023 475.44V446.639H198.912C199.891 446.582 200.81 446.153 201.482 445.44C202.155 444.728 202.529 443.787 202.529 442.808C202.529 441.829 202.155 440.887 201.482 440.175C200.81 439.463 199.891 439.034 198.912 438.976H186.091V307.695H178.349V438.976H165.541C165.018 438.945 164.494 439.021 164.002 439.2C163.509 439.379 163.058 439.656 162.677 440.015C162.296 440.374 161.992 440.806 161.785 441.287C161.577 441.767 161.47 442.285 161.47 442.808C161.47 443.331 161.577 443.849 161.785 444.329C161.992 444.809 162.296 445.242 162.677 445.601C163.058 445.96 163.509 446.237 164.002 446.416C164.494 446.594 165.018 446.67 165.541 446.639H178.349V475.4C178.228 475.4 178.107 475.507 177.986 475.588C173.645 478.111 166.629 480.486 160.259 482.298C159.829 482.428 159.459 482.708 159.217 483.086C158.975 483.464 158.877 483.917 158.941 484.361C159.004 484.806 159.225 485.213 159.563 485.509C159.901 485.805 160.334 485.97 160.783 485.975H203.589C204.019 485.946 204.426 485.771 204.741 485.478C205.057 485.186 205.263 484.794 205.324 484.368C205.385 483.943 205.299 483.509 205.078 483.14C204.858 482.77 204.518 482.487 204.114 482.338Z" fill="#E0E0E0"/>
<path d="M206.083 294.328H158.29C154.445 294.328 151.328 297.441 151.328 301.28V315.466C151.328 319.305 154.445 322.418 158.29 322.418H206.083C209.928 322.418 213.045 319.305 213.045 315.466V301.28C213.045 297.441 209.928 294.328 206.083 294.328Z" fill="#402A2E"/>
<path d="M157.852 322.432V324.874C157.852 326.887 160.042 328.525 162.73 328.525H201.706C204.394 328.525 206.585 326.887 206.585 324.874V322.432H157.852Z" fill="#402A2E"/>
<path opacity="0.3" d="M157.852 322.432V324.874C157.852 326.887 160.042 328.525 162.73 328.525H201.706C204.394 328.525 206.585 326.887 206.585 324.874V322.432H157.852Z" fill="white"/>
</svg>
