<svg width="355" height="297" viewBox="0 0 355 297" fill="none" xmlns="http://www.w3.org/2000/svg">
<g opacity="0.7">
<path d="M354.082 261.418H0.765625V261.61H354.082V261.418Z" fill="#EBEBEB"/>
<path d="M318.678 268.75H254.445V268.943H318.678V268.75Z" fill="#EBEBEB"/>
<path d="M234.819 266.664H217.23V266.857H234.819V266.664Z" fill="#EBEBEB"/>
<path d="M275.019 275.906H247.75V276.099H275.019V275.906Z" fill="#EBEBEB"/>
<path d="M53.8341 274.609H37.8359V274.802H53.8341V274.609Z" fill="#EBEBEB"/>
<path d="M79.1264 274.609H60.125V274.802H79.1264V274.609Z" fill="#EBEBEB"/>
<path d="M159.864 271.359H126.766V271.552H159.864V271.359Z" fill="#EBEBEB"/>
<path d="M168.237 227.079H31.7934C30.7245 227.077 29.7001 226.613 28.9449 225.789C28.1898 224.964 27.7656 223.847 27.7656 222.682V13.6747C27.7749 12.5166 28.2032 11.4093 28.9573 10.5933C29.7115 9.77723 30.7306 9.31839 31.7934 9.31641H168.237C169.307 9.31641 170.334 9.77964 171.09 10.6042C171.847 11.4288 172.272 12.5471 172.272 13.7132V222.682C172.272 223.849 171.847 224.967 171.09 225.792C170.334 226.616 169.307 227.079 168.237 227.079ZM31.7934 9.47041C30.7714 9.47245 29.7919 9.91631 29.0698 10.7045C28.3478 11.4928 27.9423 12.561 27.9423 13.6747V222.682C27.9423 223.796 28.3478 224.864 29.0698 225.653C29.7919 226.441 30.7714 226.885 31.7934 226.887H168.237C169.26 226.885 170.24 226.441 170.963 225.653C171.687 224.865 172.094 223.797 172.096 222.682V13.6747C172.094 12.5603 171.687 11.4921 170.963 10.7041C170.24 9.91606 169.26 9.47245 168.237 9.47041H31.7934Z" fill="#EBEBEB"/>
<path d="M321.091 227.079H184.64C183.571 227.077 182.546 226.613 181.789 225.789C181.033 224.965 180.607 223.848 180.605 222.682V13.6747C180.617 12.5159 181.046 11.4086 181.802 10.5928C182.557 9.77696 183.577 9.31837 184.64 9.31641H321.091C322.153 9.32041 323.17 9.78015 323.923 10.596C324.675 11.4118 325.103 12.518 325.112 13.6747V222.682C325.112 223.846 324.689 224.962 323.935 225.786C323.182 226.61 322.159 227.075 321.091 227.079ZM184.64 9.47041C183.618 9.47245 182.637 9.91606 181.914 10.7041C181.191 11.4921 180.784 12.5603 180.782 13.6747V222.682C180.784 223.797 181.191 224.865 181.914 225.653C182.637 226.441 183.618 226.885 184.64 226.887H321.091C322.114 226.885 323.094 226.441 323.817 225.653C324.541 224.865 324.948 223.797 324.949 222.682V13.6747C324.948 12.5603 324.541 11.4921 323.817 10.7041C323.094 9.91606 322.114 9.47245 321.091 9.47041H184.64Z" fill="#EBEBEB"/>
<path d="M304.031 168.793C302.984 168.797 301.942 168.945 300.929 169.232C299.927 167.746 298.657 166.499 297.197 165.566C295.738 164.633 294.119 164.034 292.439 163.807C290.76 163.579 289.056 163.727 287.43 164.241C285.805 164.756 284.294 165.626 282.988 166.799C280.845 162.853 277.61 159.749 273.747 157.931C269.884 156.113 265.593 155.675 261.487 156.68C257.382 157.685 253.674 160.081 250.896 163.524C248.118 166.968 246.412 171.281 246.024 175.847C243.798 175.308 241.487 175.363 239.285 176.009C237.084 176.654 235.059 177.87 233.382 179.553C231.705 181.236 230.427 183.336 229.656 185.674C228.886 188.012 228.645 190.518 228.956 192.979C229.267 195.44 230.119 197.782 231.44 199.807C232.762 201.831 234.513 203.477 236.544 204.604C238.575 205.731 240.827 206.306 243.106 206.28C245.386 206.254 247.626 205.627 249.635 204.453C250.534 207.992 252.387 211.155 254.955 213.533C257.523 215.911 260.686 217.394 264.037 217.79C267.387 218.186 270.769 217.476 273.744 215.753C276.72 214.03 279.153 211.373 280.727 208.126C283.423 210.634 286.716 212.259 290.225 212.813C293.734 213.366 297.315 212.826 300.553 211.254C303.792 209.683 306.556 207.144 308.526 203.932C310.496 200.719 311.591 196.965 311.684 193.103C313.743 191.372 315.252 188.982 316.001 186.269C316.75 183.555 316.701 180.654 315.86 177.973C315.019 175.292 313.429 172.965 311.312 171.319C309.196 169.672 306.66 168.789 304.06 168.793H304.031Z" fill="#F5F5F5"/>
<path d="M52.1189 87.3313C50.5324 86.5775 48.7361 86.5409 47.1249 87.2297C45.5136 87.9184 44.2192 89.2761 43.5262 91.0043C42.7338 90.5713 41.8688 90.3187 40.9839 90.2619C40.099 90.205 39.2127 90.3451 38.3791 90.6736C37.5455 91.0022 36.782 91.5122 36.1352 92.1727C35.4883 92.8332 34.9717 93.6302 34.6167 94.5154C34.2617 95.4005 34.0759 96.3551 34.0704 97.3211C34.065 98.287 34.2401 99.244 34.5852 100.134C34.9302 101.024 35.4378 101.828 36.0772 102.497C36.7166 103.166 37.4743 103.686 38.3042 104.025L50.2675 109.716L55.4895 96.6794C56.1788 94.9525 56.211 92.9981 55.579 91.2454C54.947 89.4927 53.7026 88.085 52.1189 87.3313Z" fill="#F5F5F5"/>
<path d="M107.899 25.2226C107.633 24.6696 107.269 24.1793 106.828 23.7797C106.388 23.3801 105.879 23.0791 105.332 22.8938C104.785 22.7086 104.209 22.6428 103.638 22.7002C103.068 22.7576 102.513 22.937 102.006 23.2283C101.447 22.1498 100.525 21.3512 99.4348 21.0019C98.3446 20.6525 97.1723 20.7801 96.167 21.3574C95.1617 21.9347 94.4024 22.9164 94.0506 24.0938C93.6987 25.2713 93.7819 26.5519 94.2825 27.6636L98.3527 36.08L106.055 31.6446C106.564 31.3556 107.015 30.9601 107.383 30.4806C107.751 30.0012 108.029 29.4473 108.2 28.8507C108.372 28.2541 108.433 27.6266 108.382 27.004C108.33 26.3814 108.166 25.7761 107.899 25.2226Z" fill="#E6E6E6"/>
<path d="M285.539 6.11042C285.272 5.55808 284.908 5.06851 284.467 4.66969C284.026 4.27088 283.518 3.97064 282.97 3.78613C282.423 3.60163 281.848 3.53648 281.277 3.59441C280.707 3.65234 280.153 3.83222 279.646 4.12376C279.38 3.56961 279.016 3.07806 278.575 2.67716C278.134 2.27626 277.626 1.97386 277.078 1.78724C276.53 1.60062 275.954 1.53342 275.382 1.58948C274.81 1.64555 274.254 1.82378 273.746 2.114C273.237 2.40421 272.786 2.80074 272.418 3.28092C272.05 3.76111 271.773 4.31556 271.601 4.91261C271.43 5.50966 271.368 6.13763 271.42 6.76065C271.471 7.38367 271.635 7.98955 271.901 8.5437L275.971 16.9524L283.688 12.5247C284.712 11.9393 285.482 10.9359 285.828 9.73394C286.175 8.53194 286.071 7.22913 285.539 6.11042Z" fill="#F5F5F5"/>
<path d="M313.805 145.277C313.671 144.356 313.208 143.53 312.517 142.98C311.826 142.431 310.963 142.202 310.117 142.343C309.95 141.459 309.477 140.679 308.797 140.165C308.116 139.651 307.28 139.442 306.462 139.581C305.644 139.721 304.906 140.199 304.403 140.915C303.899 141.632 303.668 142.532 303.757 143.429L304.753 150.359L311.113 149.274C311.955 149.129 312.71 148.628 313.215 147.88C313.719 147.131 313.931 146.196 313.805 145.277Z" fill="#EBEBEB"/>
<path d="M248.46 85.7454C248.13 85.6321 247.782 85.5911 247.436 85.6246C247.091 85.6581 246.755 85.7656 246.448 85.9409C246.14 86.1161 245.868 86.3557 245.646 86.6459C245.424 86.9361 245.256 87.2712 245.153 87.632C244.822 87.5193 244.474 87.4787 244.128 87.5127C243.782 87.5467 243.446 87.6545 243.139 87.8301C242.831 88.0056 242.559 88.2454 242.336 88.5358C242.114 88.8262 241.946 89.1614 241.843 89.5224C241.739 89.8834 241.702 90.2631 241.733 90.6398C241.765 91.0164 241.863 91.3827 242.025 91.7177C242.186 92.0527 242.406 92.3498 242.672 92.5922C242.939 92.8345 243.246 93.0172 243.578 93.13L248.623 94.8471L250.199 89.3492C250.407 88.6201 250.34 87.831 250.014 87.1552C249.688 86.4795 249.129 85.9724 248.46 85.7454Z" fill="#F5F5F5"/>
<path d="M52.6275 15.4735C51.9575 15.2469 51.2324 15.3191 50.6112 15.6742C49.9899 16.0293 49.5232 16.6383 49.3134 17.3678C48.9826 17.2556 48.6347 17.2154 48.2897 17.2497C47.9446 17.2839 47.6091 17.3919 47.3024 17.5674C46.9956 17.743 46.7236 17.9826 46.5018 18.2727C46.2801 18.5629 46.1129 18.8977 46.0099 19.2582C45.9069 19.6187 45.8701 19.9978 45.9015 20.3738C45.9329 20.7498 46.032 21.1154 46.1931 21.4497C46.3542 21.7839 46.5741 22.0804 46.8404 22.322C47.1066 22.5637 47.4139 22.7458 47.7447 22.8581L52.783 24.5752L54.3588 19.0773C54.4628 18.7168 54.5005 18.3375 54.4697 17.9611C54.4389 17.5847 54.3403 17.2187 54.1795 16.8839C54.0186 16.5491 53.7988 16.2522 53.5325 16.0102C53.2661 15.7682 52.9586 15.5858 52.6275 15.4735Z" fill="#F5F5F5"/>
<path d="M131.43 144.005C131.426 139.419 129.857 134.998 127.028 131.603C124.199 128.207 120.313 126.079 116.125 125.632C114.033 120.51 110.739 116.079 106.575 112.787C102.41 109.495 97.5225 107.459 92.4049 106.883C87.2873 106.308 82.1209 107.213 77.4271 109.509C72.7333 111.804 68.6782 115.408 65.671 119.957C63.1781 117.977 60.1834 116.887 57.0988 116.838C54.0143 116.788 50.9916 117.782 48.4464 119.681C45.9013 121.581 43.959 124.293 42.8866 127.445C41.8142 130.597 41.6645 134.034 42.458 137.282C40.1003 139.446 38.1746 142.113 36.8 145.12C35.4254 148.126 34.631 151.408 34.466 154.762C34.3009 158.116 34.7686 161.471 35.8402 164.62C36.9119 167.77 38.5646 170.646 40.6965 173.072C42.8284 175.498 45.394 177.422 48.235 178.725C51.0759 180.028 54.1319 180.682 57.2141 180.648C60.2963 180.613 63.3392 179.89 66.155 178.524C68.9708 177.158 71.4996 175.177 73.5853 172.704C76.3606 176.634 80.1078 179.619 84.3863 181.308C88.6649 182.998 93.2972 183.321 97.7387 182.241C102.18 181.161 106.246 178.721 109.46 175.209C112.673 171.698 114.899 167.259 115.877 162.416C120.116 162.032 124.068 159.926 126.949 156.515C129.829 153.105 131.429 148.64 131.43 144.005Z" fill="#EBEBEB"/>
<path d="M245.824 57.3777C245.827 54.2694 246.89 51.2732 248.807 48.9718C250.724 46.6704 253.359 45.2285 256.198 44.9264C257.607 41.4471 259.835 38.4357 262.657 36.1979C265.479 33.9601 268.794 32.5755 272.265 32.1846C275.737 31.7936 279.241 32.4102 282.424 33.9718C285.606 35.5334 288.352 37.9845 290.385 41.0763C292.075 39.7441 294.102 39.0137 296.188 38.9852C298.274 38.9566 300.317 39.6313 302.037 40.9169C303.758 42.2025 305.072 44.0361 305.799 46.1667C306.526 48.2974 306.631 50.6209 306.1 52.8192C307.704 54.2831 309.015 56.0904 309.952 58.1292C310.888 60.1679 311.431 62.3946 311.545 64.6711C311.66 66.9477 311.344 69.2256 310.617 71.3637C309.891 73.5017 308.769 75.4544 307.321 77.1005C305.874 78.7467 304.131 80.0513 302.202 80.9335C300.273 81.8156 298.198 82.2565 296.105 82.2289C294.013 82.2012 291.949 81.7055 290.04 80.7726C288.131 79.8397 286.418 78.4894 285.007 76.8054C283.13 79.4707 280.594 81.4967 277.696 82.6453C274.799 83.7939 271.661 84.0175 268.651 83.2896C265.641 82.5618 262.884 80.9129 260.704 78.5367C258.525 76.1604 257.013 73.1555 256.346 69.8752C253.473 69.6122 250.795 68.1808 248.846 65.8653C246.896 63.5499 245.818 60.52 245.824 57.3777Z" fill="#F0F0F0"/>
<path d="M177.419 296.195C253.087 296.195 314.429 292.292 314.429 287.478C314.429 282.664 253.087 278.762 177.419 278.762C101.751 278.762 40.4102 282.664 40.4102 287.478C40.4102 292.292 101.751 296.195 177.419 296.195Z" fill="#F5F5F5"/>
<path d="M96.9449 267.849H58.5535C57.6544 267.839 56.7954 267.443 56.1629 266.746C55.5305 266.05 55.1757 265.11 55.1758 264.13V246.966C55.1775 246.09 55.4627 245.242 55.9813 244.571L99.3686 188.36C99.6897 187.945 100.09 187.611 100.542 187.382C100.993 187.154 101.485 187.035 101.983 187.035H118.61C119.515 187.035 120.384 187.427 121.024 188.124C121.664 188.822 122.023 189.768 122.023 190.754V243.116C122.023 244.102 122.383 245.048 123.023 245.746C123.663 246.443 124.531 246.835 125.436 246.835H129.825C130.73 246.835 131.598 247.227 132.238 247.925C132.878 248.622 133.238 249.568 133.238 250.554V264.099C133.238 265.086 132.878 266.032 132.238 266.729C131.598 267.427 130.73 267.818 129.825 267.818H125.436C124.531 267.818 123.663 268.21 123.023 268.908C122.383 269.605 122.023 270.551 122.023 271.538V282.318C122.023 283.304 121.664 284.25 121.024 284.948C120.384 285.645 119.515 286.037 118.61 286.037H103.771C102.866 286.037 101.998 285.645 101.358 284.948C100.718 284.25 100.358 283.304 100.358 282.318V271.538C100.35 270.557 99.9876 269.618 99.3483 268.928C98.7091 268.237 97.8452 267.849 96.9449 267.849ZM100.358 244.263V223.319C100.366 222.778 100.219 222.248 99.938 221.802C99.6568 221.356 99.2551 221.017 98.7888 220.831C98.3224 220.646 97.8146 220.623 97.336 220.767C96.8574 220.91 96.4317 221.213 96.1181 221.632L79.7878 242.577C79.4925 242.955 79.3027 243.418 79.2408 243.91C79.1789 244.402 79.2474 244.903 79.4384 245.354C79.6293 245.805 79.9347 246.187 80.3184 246.455C80.7021 246.723 81.1481 246.865 81.6039 246.866H97.9412C98.2573 246.87 98.5709 246.806 98.8639 246.677C99.157 246.548 99.4236 246.357 99.6484 246.115C99.8732 245.873 100.052 245.584 100.173 245.267C100.295 244.949 100.358 244.608 100.358 244.263Z" fill="#263238"/>
<path d="M140.942 236.979C140.942 218.499 144.004 205.549 150.128 198.131C156.252 190.714 165.563 187.017 178.061 187.043C184.072 187.043 189.019 187.852 192.9 189.469C196.409 190.848 199.621 192.994 202.341 195.775C204.634 198.157 206.577 200.91 208.1 203.937C209.609 207.106 210.747 210.469 211.485 213.948C213.171 221.376 214.011 229.003 213.986 236.656C213.986 254.32 211.242 267.246 205.754 275.434C200.266 283.622 190.823 287.729 177.425 287.755C169.888 287.755 163.813 286.448 159.201 283.835C154.502 281.18 150.545 277.196 147.746 272.3C145.589 268.707 143.912 263.804 142.715 257.593C141.477 250.806 140.882 243.898 140.942 236.979ZM165.561 237.041C165.561 249.438 166.566 257.908 168.578 262.452C170.59 266.995 173.503 269.266 177.319 269.266C178.532 269.279 179.736 269.03 180.86 268.533C181.984 268.036 183.007 267.301 183.87 266.371C185.721 264.446 187.082 261.402 187.954 257.239C188.825 253.075 189.261 246.592 189.261 237.788C189.261 224.867 188.255 216.181 186.244 211.73C184.232 207.279 181.217 205.054 177.199 205.054C173.091 205.054 170.125 207.323 168.302 211.861C166.479 216.399 165.565 224.792 165.561 237.041Z" fill="#263238"/>
<path d="M263.415 267.849H225.03C224.125 267.849 223.257 267.457 222.617 266.76C221.977 266.062 221.617 265.116 221.617 264.13V246.966C221.617 246.09 221.9 245.243 222.416 244.571L265.81 188.36C266.13 187.945 266.529 187.611 266.979 187.383C267.43 187.154 267.921 187.035 268.418 187.035H285.052C285.957 187.035 286.825 187.427 287.465 188.124C288.105 188.822 288.465 189.768 288.465 190.754V243.116C288.461 243.609 288.547 244.098 288.718 244.554C288.89 245.01 289.142 245.425 289.462 245.774C289.781 246.123 290.161 246.399 290.58 246.587C290.998 246.774 291.447 246.869 291.899 246.866H296.28C297.185 246.866 298.053 247.258 298.693 247.955C299.334 248.653 299.693 249.599 299.693 250.585V264.13C299.693 265.116 299.334 266.062 298.693 266.76C298.053 267.457 297.185 267.849 296.28 267.849H291.899C290.994 267.849 290.126 268.241 289.486 268.939C288.846 269.636 288.486 270.582 288.486 271.568V282.349C288.486 283.335 288.126 284.281 287.486 284.979C286.846 285.676 285.978 286.068 285.073 286.068H270.234C269.328 286.068 268.46 285.676 267.82 284.979C267.18 284.281 266.821 283.335 266.821 282.349V271.568C266.821 270.583 266.462 269.639 265.823 268.941C265.185 268.244 264.319 267.851 263.415 267.849ZM266.828 244.263V223.319C266.827 222.787 266.677 222.268 266.397 221.832C266.118 221.396 265.722 221.064 265.264 220.88C264.806 220.697 264.308 220.67 263.835 220.805C263.363 220.939 262.94 221.228 262.623 221.632L246.286 242.577C245.991 242.954 245.802 243.415 245.739 243.906C245.677 244.397 245.744 244.896 245.933 245.347C246.123 245.797 246.426 246.179 246.807 246.449C247.189 246.718 247.633 246.862 248.088 246.866H264.418C264.733 246.869 265.046 246.804 265.339 246.675C265.631 246.545 265.897 246.354 266.121 246.112C266.345 245.87 266.522 245.582 266.644 245.265C266.765 244.947 266.828 244.607 266.828 244.263Z" fill="#263238"/>
<path d="M112.285 197.109C111.628 198.649 110.935 200.035 110.264 201.468L108.285 205.741L106.307 210.03C105.643 211.47 104.957 212.91 104.145 214.327C104.266 212.677 104.558 211.047 105.014 209.468C105.447 207.878 106.007 206.332 106.688 204.848C107.367 203.363 108.171 201.95 109.091 200.628C110 199.299 111.075 198.115 112.285 197.109Z" fill="white"/>
<path d="M114.803 200.727C114.188 202.059 113.552 203.314 112.93 204.577L111.1 208.35L109.27 212.138C108.655 213.409 108.026 214.687 107.277 215.935C107.41 214.465 107.692 213.016 108.118 211.615C108.531 210.211 109.054 208.848 109.68 207.541C110.304 206.229 111.045 204.985 111.892 203.83C112.723 202.651 113.703 201.606 114.803 200.727Z" fill="white"/>
<path d="M107.934 195.594C107.39 196.98 106.81 198.281 106.245 199.59L104.585 203.51L102.924 207.437C102.359 208.753 101.786 210.078 101.094 211.379C101.159 209.889 101.379 208.411 101.751 206.975C102.105 205.532 102.578 204.128 103.164 202.778C103.733 201.428 104.417 200.139 105.206 198.928C105.972 197.686 106.889 196.564 107.934 195.594Z" fill="white"/>
<path d="M269.996 254.109C271.205 255.124 272.28 256.316 273.19 257.651C274.129 258.974 274.952 260.389 275.649 261.879C276.326 263.364 276.884 264.91 277.317 266.499C277.772 268.079 278.066 269.708 278.193 271.358C277.373 269.941 276.695 268.501 276.024 267.061L274.045 262.772L272.067 258.498C271.367 257.035 270.703 255.619 269.996 254.109Z" fill="white"/>
<path d="M267.504 257.73C268.597 258.607 269.575 259.643 270.408 260.811C271.255 261.968 271.996 263.214 272.62 264.53C273.252 265.834 273.775 267.197 274.182 268.603C274.614 270.003 274.898 271.453 275.03 272.923C274.281 271.676 273.652 270.397 273.03 269.127L271.2 265.338L269.369 261.565C268.748 260.341 268.112 259.063 267.504 257.73Z" fill="white"/>
<path d="M274.367 252.594C275.425 253.554 276.357 254.669 277.137 255.905C277.927 257.115 278.608 258.404 279.172 259.755C279.755 261.106 280.228 262.51 280.586 263.952C280.954 265.389 281.175 266.866 281.243 268.356C280.536 267.047 279.971 265.73 279.413 264.414L277.752 260.479L276.091 256.567C275.498 255.281 274.94 253.98 274.367 252.594Z" fill="white"/>
<path d="M212.129 276.223H221.513V278.825H215.641V280.789H221.089V283.307H215.641V285.756H221.683V288.551H212.129V276.223Z" fill="#402A2E"/>
<path d="M221.683 290.058H212.129C211.768 290.058 211.421 289.902 211.165 289.623C210.909 289.344 210.766 288.966 210.766 288.572V276.252C210.765 276.056 210.799 275.863 210.868 275.682C210.936 275.501 211.036 275.337 211.163 275.199C211.29 275.06 211.441 274.951 211.606 274.877C211.772 274.802 211.95 274.765 212.129 274.766H221.514C221.693 274.765 221.871 274.802 222.037 274.877C222.202 274.951 222.353 275.06 222.48 275.199C222.607 275.337 222.707 275.501 222.775 275.682C222.844 275.863 222.878 276.056 222.877 276.252V278.824C222.593 279.033 222.391 279.351 222.313 279.715C222.234 280.079 222.284 280.462 222.453 280.787V283.305C222.296 283.49 222.184 283.715 222.128 283.96C222.072 284.204 222.074 284.46 222.133 284.704C222.192 284.947 222.307 285.171 222.467 285.353C222.627 285.535 222.826 285.671 223.047 285.746V288.541C223.051 288.739 223.018 288.936 222.951 289.12C222.884 289.303 222.785 289.471 222.658 289.612C222.531 289.753 222.379 289.866 222.212 289.942C222.044 290.019 221.865 290.058 221.683 290.058ZM213.493 287.086H214.998C214.782 286.959 214.603 286.769 214.478 286.539C214.353 286.308 214.289 286.045 214.292 285.777V283.336C214.486 283.201 214.645 283.015 214.756 282.795C214.867 282.575 214.925 282.328 214.925 282.077C214.925 281.826 214.867 281.579 214.756 281.359C214.645 281.139 214.486 280.953 214.292 280.818V278.824C214.292 278.604 214.337 278.387 214.424 278.188C214.51 277.99 214.637 277.815 214.793 277.676H213.507L213.493 287.086Z" fill="#402A2E"/>
<path d="M223.617 288.572V276.252H229.454C230.29 276.22 231.125 276.321 231.934 276.552C232.51 276.74 233.008 277.137 233.348 277.677C233.599 278.069 233.773 278.513 233.86 278.981C233.947 279.45 233.944 279.933 233.852 280.401C233.76 280.868 233.58 281.31 233.324 281.698C233.069 282.087 232.742 282.414 232.365 282.659C231.982 282.893 231.567 283.059 231.136 283.151C231.458 283.255 231.765 283.408 232.047 283.606C232.257 283.796 232.444 284.013 232.606 284.253C232.791 284.493 232.956 284.751 233.1 285.023L234.796 288.603H230.839L228.966 284.83C228.816 284.468 228.6 284.143 228.33 283.875C228.08 283.685 227.781 283.585 227.475 283.59H227.164V288.603L223.617 288.572ZM227.15 281.226H228.627C228.939 281.197 229.249 281.14 229.553 281.057C229.782 281.009 229.987 280.869 230.125 280.664C230.287 280.421 230.363 280.122 230.34 279.822C230.316 279.523 230.195 279.242 229.998 279.032C229.605 278.775 229.146 278.665 228.691 278.716H227.15V281.226Z" fill="#402A2E"/>
<path d="M234.771 290.057H230.814C230.569 290.057 230.328 289.986 230.117 289.85C229.905 289.715 229.731 289.52 229.612 289.287L228.503 287.038V288.578C228.501 288.972 228.357 289.349 228.101 289.627C227.846 289.905 227.5 290.062 227.139 290.064H223.606C223.427 290.064 223.25 290.026 223.084 289.951C222.919 289.877 222.768 289.767 222.642 289.629C222.515 289.491 222.415 289.327 222.346 289.147C222.277 288.967 222.242 288.773 222.242 288.578V276.258C222.241 276.062 222.276 275.869 222.344 275.688C222.412 275.507 222.513 275.343 222.64 275.205C222.766 275.066 222.917 274.957 223.083 274.883C223.249 274.808 223.427 274.771 223.606 274.772H229.443C230.423 274.735 231.402 274.863 232.347 275.149C233.193 275.443 233.924 276.036 234.425 276.835C234.949 277.674 235.218 278.67 235.195 279.684C235.21 280.568 235.008 281.441 234.608 282.21C234.366 282.664 234.055 283.07 233.69 283.411C233.914 283.708 234.11 284.028 234.276 284.366L235.965 287.924C236.073 288.15 236.126 288.403 236.118 288.658C236.11 288.913 236.042 289.161 235.921 289.38C235.8 289.598 235.629 289.778 235.425 289.904C235.221 290.029 234.991 290.095 234.757 290.095L234.771 290.057ZM231.626 287.084H232.538L231.831 285.675C231.738 285.487 231.624 285.311 231.492 285.152C231.393 285.014 231.287 284.883 231.174 284.759C231.008 284.662 230.832 284.585 230.651 284.528C230.477 284.462 230.316 284.36 230.178 284.228L231.626 287.084ZM224.984 287.084H225.775V283.558C225.775 283.332 225.822 283.11 225.913 282.907C226.004 282.704 226.135 282.526 226.298 282.387C226.135 282.25 226.004 282.073 225.913 281.872C225.822 281.67 225.775 281.449 225.775 281.224V278.714C225.776 278.341 225.904 277.981 226.136 277.705H224.984V287.084ZM229.125 282.657C229.381 282.872 229.603 283.133 229.782 283.427C229.756 283.298 229.744 283.166 229.747 283.034C229.76 282.845 229.803 282.66 229.874 282.487H229.81C229.542 282.58 229.316 282.626 229.125 282.672V282.657ZM230.701 277.767L230.863 277.898C231.135 278.148 231.352 278.463 231.496 278.818C231.641 279.172 231.709 279.558 231.697 279.946C231.701 280.528 231.527 281.094 231.202 281.556C231.354 281.511 231.499 281.444 231.633 281.355C231.897 281.189 232.118 280.953 232.276 280.67C232.429 280.355 232.502 280.002 232.488 279.646C232.508 279.241 232.409 278.839 232.206 278.499C232.039 278.224 231.789 278.022 231.499 277.929C231.238 277.849 230.971 277.795 230.701 277.767Z" fill="#402A2E"/>
<path d="M235.934 288.573V276.252H241.77C242.609 276.219 243.447 276.32 244.258 276.552C244.834 276.739 245.333 277.136 245.671 277.677C245.922 278.069 246.097 278.513 246.183 278.982C246.27 279.45 246.267 279.933 246.175 280.401C246.083 280.868 245.904 281.31 245.648 281.698C245.392 282.087 245.066 282.414 244.689 282.659C244.306 282.893 243.891 283.06 243.459 283.152C243.781 283.255 244.088 283.408 244.371 283.606C244.583 283.795 244.773 284.013 244.936 284.253C245.117 284.495 245.28 284.752 245.424 285.023L247.12 288.603H243.134L241.262 284.83C241.114 284.467 240.897 284.141 240.626 283.875C240.376 283.682 240.076 283.582 239.771 283.59H239.46V288.603L235.934 288.573ZM239.467 281.227H240.944C241.256 281.198 241.566 281.141 241.869 281.057C242.099 281.01 242.303 280.869 242.442 280.664C242.589 280.461 242.666 280.207 242.661 279.948C242.67 279.777 242.644 279.606 242.584 279.447C242.524 279.288 242.432 279.146 242.314 279.032C241.921 278.776 241.463 278.665 241.007 278.716H239.467V281.227Z" fill="#402A2E"/>
<path d="M247.088 290.057H243.138C242.893 290.057 242.652 289.986 242.441 289.851C242.229 289.715 242.055 289.52 241.937 289.287L240.827 287.038V288.578C240.827 288.973 240.683 289.351 240.428 289.629C240.172 289.908 239.825 290.065 239.463 290.065H235.93C235.569 290.062 235.223 289.905 234.968 289.627C234.713 289.349 234.568 288.972 234.566 288.578V276.258C234.566 275.864 234.71 275.486 234.966 275.207C235.222 274.928 235.569 274.772 235.93 274.772H241.767C242.747 274.735 243.727 274.862 244.671 275.149C245.52 275.44 246.254 276.034 246.756 276.836C247.23 277.633 247.497 278.555 247.528 279.504C247.559 280.453 247.353 281.394 246.932 282.226C246.69 282.677 246.382 283.083 246.021 283.427C246.242 283.725 246.439 284.045 246.607 284.382L248.289 287.939C248.397 288.166 248.45 288.418 248.442 288.673C248.434 288.928 248.367 289.177 248.245 289.395C248.124 289.613 247.953 289.794 247.749 289.919C247.545 290.044 247.315 290.11 247.081 290.111L247.088 290.057ZM243.943 287.085H244.855L244.184 285.675C244.082 285.491 243.966 285.315 243.837 285.152C243.744 285.009 243.638 284.878 243.519 284.759C243.353 284.662 243.178 284.585 242.997 284.528C242.825 284.462 242.666 284.36 242.53 284.228L243.943 287.085ZM237.301 287.085H238.093V283.558C238.092 283.332 238.14 283.11 238.23 282.907C238.321 282.704 238.452 282.526 238.615 282.387C238.453 282.25 238.321 282.074 238.23 281.872C238.14 281.671 238.092 281.449 238.093 281.225V278.714C238.092 278.339 238.224 277.979 238.46 277.706H237.301V287.085ZM241.442 282.672C241.698 282.888 241.92 283.148 242.099 283.442C242.081 283.312 242.081 283.18 242.099 283.05C242.106 282.861 242.147 282.675 242.219 282.503H242.163C241.859 282.58 241.633 282.626 241.442 282.672ZM243.025 277.783L243.18 277.914C243.452 278.164 243.669 278.478 243.813 278.833C243.958 279.188 244.026 279.574 244.014 279.962C244.018 280.543 243.844 281.109 243.519 281.571C243.673 281.526 243.82 281.459 243.958 281.371C244.219 281.204 244.438 280.968 244.594 280.686C244.746 280.371 244.819 280.017 244.806 279.661C244.825 279.256 244.726 278.855 244.523 278.514C244.356 278.24 244.106 278.038 243.816 277.944C243.558 277.86 243.293 277.801 243.025 277.767V277.783Z" fill="#402A2E"/>
<path d="M247.499 282.402C247.421 281.542 247.519 280.674 247.786 279.86C248.052 279.047 248.481 278.307 249.041 277.696C249.601 277.084 250.279 276.615 251.025 276.322C251.771 276.03 252.567 275.921 253.356 276.003C254.148 275.948 254.941 276.067 255.69 276.351C256.439 276.635 257.128 277.08 257.716 277.659C258.243 278.277 258.65 279.005 258.912 279.799C259.174 280.593 259.287 281.437 259.243 282.279C259.286 283.503 259.058 284.721 258.579 285.829C258.142 286.74 257.468 287.49 256.642 287.985C255.67 288.533 254.585 288.798 253.491 288.755C252.401 288.794 251.317 288.568 250.318 288.093C249.46 287.63 248.75 286.894 248.283 285.983C247.732 284.887 247.461 283.651 247.499 282.402ZM251.032 282.402C250.954 283.351 251.179 284.3 251.668 285.09C251.893 285.345 252.164 285.548 252.463 285.687C252.762 285.826 253.084 285.898 253.409 285.898C253.735 285.898 254.057 285.826 254.356 285.687C254.655 285.548 254.926 285.345 255.151 285.09C255.645 284.234 255.863 283.223 255.773 282.217C255.84 281.311 255.609 280.408 255.123 279.669C254.901 279.408 254.629 279.203 254.326 279.07C254.023 278.937 253.697 278.879 253.371 278.899C253.05 278.886 252.73 278.953 252.436 279.094C252.143 279.235 251.882 279.448 251.675 279.715C251.169 280.503 250.932 281.459 251.003 282.418L251.032 282.402Z" fill="#402A2E"/>
<path d="M253.489 290.266C252.193 290.306 250.906 290.027 249.722 289.45C248.621 288.863 247.71 287.926 247.108 286.762C246.426 285.433 246.089 283.926 246.133 282.404C246.184 280.845 246.642 279.335 247.454 278.05C248.266 276.766 249.397 275.76 250.715 275.152C252.033 274.544 253.483 274.359 254.894 274.618C256.306 274.876 257.62 275.569 258.683 276.613C259.342 277.369 259.854 278.264 260.187 279.242C260.52 280.22 260.667 281.262 260.619 282.304C260.663 283.77 260.379 285.226 259.792 286.547C259.236 287.712 258.375 288.671 257.319 289.303C256.14 289.979 254.82 290.311 253.489 290.266ZM254.443 277.568C255.096 277.763 255.681 278.165 256.125 278.723C256.841 279.726 257.191 280.982 257.107 282.25C257.107 284.013 256.803 285.261 256.174 286.1C255.77 286.621 255.242 287.011 254.648 287.224C255.116 287.15 255.568 286.985 255.983 286.739C256.584 286.39 257.076 285.854 257.396 285.199C257.775 284.305 257.952 283.326 257.912 282.342C257.956 281.692 257.879 281.039 257.685 280.422C257.49 279.805 257.183 279.238 256.782 278.754C256.145 278.087 255.322 277.669 254.443 277.568ZM252.259 277.568C251.413 277.68 250.623 278.091 250.012 278.739C249.604 279.232 249.293 279.811 249.096 280.44C248.899 281.068 248.821 281.734 248.867 282.396C248.828 283.387 249.033 284.371 249.461 285.245C249.79 285.909 250.298 286.447 250.917 286.785C251.278 286.971 251.661 287.103 252.054 287.178C251.492 286.955 250.992 286.575 250.606 286.077C249.976 284.981 249.642 283.713 249.642 282.419C249.642 281.126 249.976 279.858 250.606 278.762C251.036 278.199 251.608 277.786 252.252 277.576L252.259 277.568ZM253.348 280.379C253.223 280.365 253.098 280.385 252.982 280.436C252.867 280.487 252.764 280.568 252.683 280.671C252.413 281.201 252.304 281.81 252.372 282.412C252.304 283.008 252.413 283.613 252.683 284.137C252.77 284.245 252.88 284.328 253.003 284.379C253.126 284.43 253.259 284.447 253.39 284.429C253.885 284.429 254.026 284.252 254.097 284.16C254.167 284.067 254.393 283.728 254.393 282.242C254.449 281.706 254.34 281.164 254.082 280.702C253.993 280.584 253.879 280.492 253.75 280.433C253.621 280.374 253.48 280.35 253.34 280.363L253.348 280.379Z" fill="#402A2E"/>
<path d="M261.18 288.572V276.252H267.016C267.852 276.22 268.688 276.321 269.497 276.552C270.072 276.74 270.571 277.137 270.91 277.677C271.161 278.069 271.336 278.513 271.422 278.981C271.509 279.45 271.506 279.933 271.414 280.401C271.322 280.868 271.143 281.31 270.887 281.698C270.631 282.087 270.305 282.414 269.928 282.659C269.545 282.893 269.13 283.059 268.698 283.151C269.02 283.255 269.327 283.408 269.61 283.606C269.819 283.796 270.007 284.013 270.168 284.253C270.353 284.493 270.519 284.751 270.663 285.023L272.359 288.603H268.401L266.529 284.83C266.379 284.468 266.162 284.143 265.893 283.875C265.642 283.685 265.343 283.585 265.038 283.59H264.727V288.603L261.18 288.572ZM264.713 281.226H266.19C266.502 281.197 266.812 281.14 267.115 281.057C267.345 281.009 267.549 280.869 267.688 280.664C267.85 280.421 267.926 280.122 267.902 279.822C267.879 279.523 267.758 279.242 267.561 279.032C267.168 278.775 266.709 278.665 266.253 278.716H264.713V281.226Z" fill="#402A2E"/>
<path d="M272.326 290.057H268.368C268.123 290.057 267.883 289.986 267.671 289.85C267.46 289.715 267.286 289.52 267.167 289.287L266.058 287.038V288.578C266.056 288.972 265.912 289.349 265.656 289.627C265.401 289.905 265.055 290.062 264.694 290.064H261.161C260.799 290.064 260.452 289.908 260.196 289.629C259.941 289.35 259.797 288.972 259.797 288.578V276.258C259.796 276.062 259.831 275.869 259.899 275.688C259.967 275.507 260.067 275.343 260.194 275.205C260.321 275.066 260.472 274.957 260.638 274.883C260.804 274.808 260.981 274.771 261.161 274.772H266.997C267.978 274.735 268.957 274.863 269.902 275.149C270.748 275.443 271.479 276.036 271.979 276.835C272.506 277.673 272.778 278.669 272.757 279.684C272.77 280.569 272.565 281.442 272.163 282.21C271.92 282.664 271.61 283.07 271.244 283.411C271.468 283.708 271.665 284.028 271.831 284.366L273.52 287.924C273.628 288.15 273.68 288.403 273.673 288.658C273.665 288.913 273.597 289.161 273.476 289.38C273.354 289.598 273.183 289.778 272.98 289.904C272.776 290.029 272.546 290.095 272.311 290.095L272.326 290.057ZM269.181 287.084H270.085L269.421 285.675C269.319 285.49 269.204 285.315 269.075 285.152C268.976 285.014 268.87 284.883 268.757 284.759C268.591 284.662 268.415 284.585 268.234 284.528C268.06 284.462 267.899 284.36 267.761 284.228L269.181 287.084ZM262.539 287.084H263.33V283.558C263.33 283.332 263.377 283.11 263.468 282.907C263.558 282.704 263.69 282.526 263.853 282.387C263.69 282.25 263.558 282.073 263.468 281.872C263.377 281.67 263.33 281.449 263.33 281.224V278.714C263.327 278.34 263.456 277.979 263.69 277.705H262.539V287.084ZM266.68 282.657C266.936 282.872 267.158 283.133 267.337 283.427C267.319 283.297 267.319 283.164 267.337 283.034C267.344 282.845 267.385 282.659 267.457 282.487H267.393C267.096 282.58 266.87 282.626 266.68 282.672V282.657ZM268.262 277.767L268.418 277.898C268.69 278.148 268.906 278.463 269.051 278.818C269.195 279.172 269.264 279.558 269.252 279.946C269.255 280.528 269.081 281.094 268.757 281.556C269.203 281.419 269.585 281.102 269.824 280.67C269.978 280.33 270.052 279.954 270.041 279.576C270.03 279.197 269.934 278.827 269.76 278.499C269.594 278.224 269.343 278.022 269.054 277.929C268.795 277.85 268.53 277.796 268.262 277.767Z" fill="#402A2E"/>
<path d="M212.129 276.223H221.513V278.825H215.641V280.789H221.089V283.307H215.641V285.756H221.683V288.551H212.129V276.223Z" fill="white"/>
<path d="M223.617 288.572V276.252H229.454C230.29 276.22 231.125 276.321 231.934 276.552C232.51 276.74 233.008 277.137 233.348 277.677C233.599 278.069 233.773 278.513 233.86 278.981C233.947 279.45 233.944 279.933 233.852 280.401C233.76 280.868 233.58 281.31 233.324 281.698C233.069 282.087 232.742 282.414 232.365 282.659C231.982 282.893 231.567 283.059 231.136 283.151C231.458 283.255 231.765 283.408 232.047 283.606C232.257 283.796 232.444 284.013 232.606 284.253C232.791 284.493 232.956 284.751 233.1 285.023L234.796 288.603H230.839L228.966 284.83C228.816 284.468 228.6 284.143 228.33 283.875C228.08 283.685 227.781 283.585 227.475 283.59H227.164V288.603L223.617 288.572ZM227.15 281.226H228.627C228.939 281.197 229.249 281.14 229.553 281.057C229.782 281.009 229.987 280.869 230.125 280.664C230.287 280.421 230.363 280.122 230.34 279.822C230.316 279.523 230.195 279.242 229.998 279.032C229.605 278.775 229.146 278.665 228.691 278.716H227.15V281.226Z" fill="white"/>
<path d="M235.934 288.573V276.252H241.77C242.609 276.219 243.447 276.32 244.258 276.552C244.834 276.739 245.333 277.136 245.671 277.677C245.922 278.069 246.097 278.513 246.183 278.982C246.27 279.45 246.267 279.933 246.175 280.401C246.083 280.868 245.904 281.31 245.648 281.698C245.392 282.087 245.066 282.414 244.689 282.659C244.306 282.893 243.891 283.06 243.459 283.152C243.781 283.255 244.088 283.408 244.371 283.606C244.583 283.795 244.773 284.013 244.936 284.253C245.117 284.495 245.28 284.752 245.424 285.023L247.12 288.603H243.134L241.262 284.83C241.114 284.467 240.897 284.141 240.626 283.875C240.376 283.682 240.076 283.582 239.771 283.59H239.46V288.603L235.934 288.573ZM239.467 281.227H240.944C241.256 281.198 241.566 281.141 241.869 281.057C242.099 281.01 242.303 280.869 242.442 280.664C242.589 280.461 242.666 280.207 242.661 279.948C242.67 279.777 242.644 279.606 242.584 279.447C242.524 279.288 242.432 279.146 242.314 279.032C241.921 278.776 241.463 278.665 241.007 278.716H239.467V281.227Z" fill="white"/>
<path d="M247.499 282.402C247.421 281.542 247.519 280.674 247.786 279.86C248.052 279.047 248.481 278.307 249.041 277.696C249.601 277.084 250.279 276.615 251.025 276.322C251.771 276.03 252.567 275.921 253.356 276.003C254.148 275.948 254.941 276.067 255.69 276.351C256.439 276.635 257.128 277.08 257.716 277.659C258.243 278.277 258.65 279.005 258.912 279.799C259.174 280.593 259.287 281.437 259.243 282.279C259.286 283.503 259.058 284.721 258.579 285.829C258.142 286.74 257.468 287.49 256.642 287.985C255.67 288.533 254.585 288.798 253.491 288.755C252.401 288.794 251.317 288.568 250.318 288.093C249.46 287.63 248.75 286.894 248.283 285.983C247.732 284.887 247.461 283.651 247.499 282.402ZM251.032 282.402C250.954 283.351 251.179 284.3 251.668 285.09C251.893 285.345 252.164 285.548 252.463 285.687C252.762 285.826 253.084 285.898 253.409 285.898C253.735 285.898 254.057 285.826 254.356 285.687C254.655 285.548 254.926 285.345 255.151 285.09C255.645 284.234 255.863 283.223 255.773 282.217C255.84 281.311 255.609 280.408 255.123 279.669C254.901 279.408 254.629 279.203 254.326 279.07C254.023 278.937 253.697 278.879 253.371 278.899C253.05 278.886 252.73 278.953 252.436 279.094C252.143 279.235 251.882 279.448 251.675 279.715C251.169 280.503 250.932 281.459 251.003 282.418L251.032 282.402Z" fill="white"/>
<path d="M261.18 288.572V276.252H267.016C267.852 276.22 268.688 276.321 269.497 276.552C270.072 276.74 270.571 277.137 270.91 277.677C271.161 278.069 271.336 278.513 271.422 278.981C271.509 279.45 271.506 279.933 271.414 280.401C271.322 280.868 271.143 281.31 270.887 281.698C270.631 282.087 270.305 282.414 269.928 282.659C269.545 282.893 269.13 283.059 268.698 283.151C269.02 283.255 269.327 283.408 269.61 283.606C269.819 283.796 270.007 284.013 270.168 284.253C270.353 284.493 270.519 284.751 270.663 285.023L272.359 288.603H268.401L266.529 284.83C266.379 284.468 266.162 284.143 265.893 283.875C265.642 283.685 265.343 283.585 265.038 283.59H264.727V288.603L261.18 288.572ZM264.713 281.226H266.19C266.502 281.197 266.812 281.14 267.115 281.057C267.345 281.009 267.549 280.869 267.688 280.664C267.85 280.421 267.926 280.122 267.902 279.822C267.879 279.523 267.758 279.242 267.561 279.032C267.168 278.775 266.709 278.665 266.253 278.716H264.713V281.226Z" fill="white"/>
<path d="M302.143 87.3042C299.174 86.276 296.072 85.7793 292.957 85.8335C289.933 85.8527 286.938 86.4819 284.124 87.6893C282.942 88.1952 281.831 88.8795 280.824 89.7221C280.725 89.8145 280.612 89.8992 280.534 89.9839C280.456 90.0686 280.379 90.1302 280.252 90.2765C280.124 90.4228 279.792 90.7925 279.545 91.0466C279.094 91.6044 278.676 92.1934 278.294 92.8099C276.715 95.3399 275.712 98.2435 275.369 101.28C275.201 102.718 275.217 104.175 275.418 105.608C275.513 106.282 275.657 106.946 275.849 107.594C276.041 108.244 276.277 108.877 276.556 109.489C277.331 111.071 278.207 112.591 279.177 114.039C280.259 115.718 281.509 117.551 282.711 119.792C284.108 122.273 285.105 124.997 285.657 127.846C285.939 129.449 286.043 131.083 285.968 132.713C285.884 134.311 285.625 135.893 285.198 137.425C284.373 140.36 283.002 143.079 281.17 145.41C280.267 146.556 279.26 147.601 278.167 148.529C277.111 149.434 275.98 150.231 274.789 150.908C272.491 152.2 270.02 153.092 267.469 153.549C265.08 153.98 262.654 154.104 260.24 153.919C257.937 153.741 255.655 153.334 253.421 152.702C251.322 152.109 249.257 151.382 247.238 150.523C243.309 148.883 239.747 147.004 236.348 145.41C233.2 143.835 229.908 142.627 226.526 141.807C224.993 141.467 223.433 141.297 221.869 141.298C220.283 141.304 218.701 141.469 217.142 141.791C213.856 142.522 210.679 143.745 207.701 145.426C201.525 148.821 195.816 153.996 189.908 159.417C188.84 160.401 187.457 160.885 186.062 160.763C184.667 160.641 183.373 159.922 182.463 158.764C181.552 157.606 181.099 156.103 181.202 154.582C181.305 153.061 181.955 151.646 183.012 150.646C188.841 145.11 194.982 139.173 202.6 134.738C206.472 132.449 210.621 130.765 214.923 129.733C217.162 129.217 219.44 128.931 221.728 128.878C224.042 128.822 226.355 129.02 228.632 129.471C232.842 130.368 236.952 131.755 240.892 133.606C244.637 135.277 248.093 136.994 251.428 138.303C253.028 138.945 254.66 139.485 256.318 139.92C257.843 140.32 259.4 140.562 260.967 140.644C263.723 140.889 266.487 140.306 268.96 138.957C269.479 138.642 269.971 138.276 270.429 137.864C270.856 137.482 271.249 137.057 271.602 136.594C272.28 135.687 272.78 134.639 273.072 133.513C273.203 133.012 273.275 132.495 273.284 131.973C273.296 131.492 273.253 131.011 273.157 130.541C272.85 129.268 272.353 128.058 271.687 126.961C270.903 125.574 269.829 124.019 268.649 122.271C267.287 120.317 266.056 118.258 264.967 116.111C264.351 114.852 263.822 113.544 263.384 112.199C262.956 110.848 262.626 109.463 262.395 108.056C261.947 105.32 261.85 102.529 262.105 99.7632C262.598 94.3724 264.27 89.1889 266.981 84.6477C267.663 83.4984 268.411 82.3976 269.221 81.352C269.638 80.8283 270.062 80.3124 270.507 79.8119C270.712 79.5732 271.009 79.2729 271.27 79.0034C271.532 78.7339 271.807 78.4875 272.076 78.2334C274.094 76.4327 276.341 74.9595 278.746 73.8596C283.126 71.8621 287.808 70.7706 292.554 70.6409C297.19 70.48 301.82 71.1379 306.263 72.5891C307.947 73.2667 309.331 74.6173 310.134 76.3666C310.938 78.116 311.1 80.1329 310.588 82.0079C310.076 83.8829 308.929 85.4754 307.379 86.4619C305.829 87.4485 303.992 87.7551 302.242 87.3196L302.143 87.3042Z" fill="#263238"/>
<path d="M301.974 87.9267C298.176 86.5241 294.152 85.9996 290.159 86.3866C288.232 86.5776 286.334 87.0223 284.506 87.7111C282.993 88.2738 281.578 89.1122 280.322 90.1905L279.92 90.5679C278.588 91.9004 276.825 92.602 275.019 92.5182C273.213 92.4345 271.511 91.5722 270.288 90.1212C269.065 88.6702 268.421 86.7493 268.498 84.781C268.575 82.8128 269.366 80.9584 270.698 79.6258C273.173 76.9874 276.094 74.8956 279.298 73.4656C282.182 72.1555 285.203 71.2374 288.293 70.732C294.356 69.7615 300.539 70.1918 306.44 71.9949C308.398 72.5789 310.063 73.9869 311.069 75.9089C312.075 77.831 312.339 80.1098 311.803 82.2439C311.267 84.378 309.975 86.1927 308.211 87.2888C306.447 88.3848 304.356 88.6725 302.398 88.0884L302.023 87.9652L301.974 87.9267Z" fill="#402A2E"/>
<path d="M170.212 183.225L172.833 187.676C170.198 189.177 167.442 188.954 164.629 188.954C163.435 182.932 170.212 183.225 170.212 183.225Z" fill="#263238"/>
<path d="M154.234 159.469C157.577 169.949 169.971 183.848 169.971 183.848C169.971 183.848 164.742 184.987 166.162 188.922H173.462L189.177 185.696C189.702 185.563 190.16 185.217 190.459 184.73C190.758 184.242 190.876 183.649 190.789 183.07L184.987 161.864L154.234 159.469Z" fill="#402A2E"/>
<path d="M215.199 165.468L216.612 171.713C219.382 170.519 221.721 169.703 222.923 166.9C221.531 163.004 215.199 165.468 215.199 165.468Z" fill="#263238"/>
<path d="M202.785 133.43C207.732 143.086 218.162 166.633 218.162 166.633C218.162 166.633 223.518 166.88 222.804 170.984L202.036 176.574C201.573 176.749 201.07 176.753 200.605 176.584C200.14 176.416 199.739 176.085 199.464 175.642L184.625 161.951C192.723 156.561 202.149 142.416 202.785 133.43Z" fill="#402A2E"/>
<path opacity="0.1" d="M193.163 153.688C190.731 156.896 187.873 159.691 184.684 161.981L188.923 165.746C193.495 161.288 194.796 156.513 193.163 153.688Z" fill="black"/>
<path d="M187.877 105.391C193.643 106.461 217.591 102.919 219.372 102.827C219.563 101.387 220.17 97.8217 221.605 98.4531C223.039 99.0845 223.774 101.78 223.484 103.073C226.883 102.411 231.349 110.003 226.269 116.164C218.828 125.265 191.643 126.659 191.643 126.659C191.643 126.659 176.896 106.9 187.877 105.391Z" fill="#402A2E"/>
<path opacity="0.1" d="M189.676 117.501C188.526 117.363 187.363 117.502 186.27 117.909C187.847 120.977 189.648 123.902 191.654 126.657C191.654 126.657 197.138 126.372 203.851 125.248C200.155 122.368 194.297 118.31 189.676 117.501Z" fill="black"/>
<path d="M223.484 103.049C226.919 101.509 229.321 100.739 230.113 102.025C230.904 103.311 229.844 106.014 226.523 106.714C223.477 104.635 223.484 103.049 223.484 103.049Z" fill="#402A2E"/>
<path d="M225.721 106.254C229.339 106.123 231.763 106.354 232.081 107.794C232.399 109.234 230.576 111.329 227.339 110.72C225.212 107.702 225.721 106.254 225.721 106.254Z" fill="#402A2E"/>
<path d="M228.006 110.281C230.33 111.459 231.758 112.491 231.334 113.731C230.91 114.971 228.896 115.926 227.094 114.308C227.073 111.213 228.006 110.281 228.006 110.281Z" fill="#402A2E"/>
<path d="M143.612 125.08C140.955 130.755 124.024 149.544 122.887 151.053C121.714 150.352 118.732 148.743 118.343 150.383C117.954 152.023 119.488 154.272 120.59 154.772C118.074 157.344 120.964 165.776 128.575 165.052C139.719 163.989 156.996 141.097 156.996 141.097C156.996 141.097 151.279 116.386 143.612 125.08Z" fill="#402A2E"/>
<path opacity="0.1" d="M151.437 133.89C152.028 132.806 152.825 131.874 153.776 131.156C155.092 134.37 156.168 137.694 156.991 141.097C156.991 141.097 153.508 145.717 148.66 150.9C148.752 145.956 149.268 138.41 151.437 133.89Z" fill="black"/>
<path d="M120.587 154.773C117.386 156.837 115.401 158.493 115.874 159.948C116.348 161.403 118.969 162.104 121.471 159.625C121.76 155.721 120.587 154.773 120.587 154.773Z" fill="#402A2E"/>
<path d="M121.601 158.648C119.34 161.729 118.068 163.977 118.958 165.124C119.848 166.272 122.449 165.894 123.94 162.722C123.014 159.064 121.601 158.648 121.601 158.648Z" fill="#402A2E"/>
<path d="M123.211 163.043C122.681 165.776 122.589 167.663 123.762 168.017C124.935 168.371 126.829 167.201 126.702 164.675C124.426 162.789 123.211 163.043 123.211 163.043Z" fill="#402A2E"/>
<path opacity="0.1" d="M185.005 161.941V161.895L175.607 161.125C175.416 165.537 180.13 168.332 186.461 167.147L185.005 161.941Z" fill="black"/>
<path d="M186.742 108.934L167.352 117.981L147.969 127.029C147.969 127.029 150.032 154.334 156.392 163.69C162.752 173.046 175.033 170.166 185.88 165.099C196.726 160.032 207.079 152.34 205.284 140.867C203.489 129.393 186.742 108.934 186.742 108.934Z" fill="#402A2E"/>
<path opacity="0.2" d="M178.305 114.039L167.748 118.967L157.198 123.895C157.353 121.654 153.043 142.499 160.392 153.61C165.183 160.849 174.129 158.862 181.994 155.189C189.859 151.516 197.342 145.833 195.837 137.063C193.533 123.61 176.715 112.637 178.305 114.039Z" fill="white"/>
<path opacity="0.2" d="M174.948 117.287L167.882 120.568L160.851 123.856C160.9 122.239 158.462 137.231 163.677 145.486C167.09 150.876 173.104 149.675 178.347 147.226C183.59 144.777 188.537 140.858 187.314 134.451C185.484 124.633 173.832 116.217 174.948 117.287Z" fill="white"/>
<path opacity="0.2" d="M125.5 162.045C126.837 161.461 127.358 159.461 126.665 157.578C125.972 155.695 124.327 154.643 122.99 155.227C121.654 155.811 121.132 157.811 121.825 159.694C122.518 161.577 124.164 162.629 125.5 162.045Z" fill="white"/>
<path opacity="0.2" d="M226.516 110.067C226.65 112.092 225.598 113.825 224.163 113.917C222.729 114.009 221.45 112.485 221.337 110.467C221.224 108.45 222.255 106.71 223.69 106.617C225.124 106.525 226.382 108.05 226.516 110.067Z" fill="white"/>
<path d="M124.911 59.3705C96.7378 37.6404 53.4495 50.9695 50.0505 59.178C46.4396 67.9177 85.6437 91.4574 95.2751 114.204C109.337 85.7361 124.911 59.3705 124.911 59.3705Z" fill="#263238"/>
<path opacity="0.5" d="M114.528 68.2778C92.2267 51.3373 60.7815 58.9605 58.7464 64.7357C56.577 70.8959 87.2096 89.646 95.7669 106.51C104.494 86.6044 114.528 68.2778 114.528 68.2778Z" fill="#402A2E"/>
<path d="M117.309 64.1641C110.992 64.6261 105.643 66.9361 100.93 72.3571C103.054 71.6151 105.317 71.484 107.501 71.9765C109.685 72.4689 111.715 73.5682 113.395 75.1677L117.309 64.1641Z" fill="#263238"/>
<path d="M158.625 43.62C172.164 -2.93572 220.385 -3.12052 229.995 3.9252C237.295 9.31537 206.21 30.8222 214.541 61.8695C186.502 51.4126 158.625 43.62 158.625 43.62Z" fill="#263238"/>
<path opacity="0.5" d="M171.367 42.61C182.673 15.6592 209.045 4.87881 221.362 7.28899C233.007 9.55286 198.212 39.1449 205.321 65.1948C188.517 52.8744 171.367 42.61 171.367 42.61Z" fill="#402A2E"/>
<path d="M170.594 38.4524C172.773 37.1662 175.165 36.3632 177.63 36.0896C180.096 35.816 182.587 36.0773 184.96 36.8584C183.216 37.2842 181.604 38.1945 180.279 39.5007C178.954 40.8068 177.962 42.4644 177.399 44.3123L170.594 38.4524Z" fill="#263238"/>
<path d="M171.18 36.2674C172.623 34.7972 174.318 33.6525 176.169 32.8992C178.02 32.1459 179.989 31.7989 181.963 31.8783C180.697 32.5909 179.622 33.6483 178.842 34.9477C178.062 36.247 177.603 37.7442 177.511 39.2936L171.18 36.2674Z" fill="#263238"/>
<path d="M222.88 64.2487C230.003 82.3597 204.31 104.29 168.54 120.992C132.77 137.694 100.477 142.837 93.3329 124.719C86.1888 106.6 103.395 63.0321 139.165 46.3303C174.935 29.6285 215.757 46.1301 222.88 64.2487Z" fill="#402A2E"/>
<path opacity="0.1" d="M208.759 65.9738C215.358 82.768 195.234 102.019 166.361 115.494C137.487 128.969 110.826 131.564 104.226 114.763C97.6263 97.9606 113.582 68.1221 142.441 54.6544C171.3 41.1867 202.152 49.1718 208.759 65.9738Z" fill="black"/>
<path d="M150.689 90.4499C150.067 88.8636 151.968 87.0464 154.688 85.7681C157.409 84.4899 159.939 84.2281 160.56 85.8375C161.182 87.4468 160.228 91.6434 157.501 92.9217C154.773 94.1999 151.311 92.0361 150.689 90.4499Z" fill="#263238"/>
<path opacity="0.3" d="M156.461 104.598C156.044 103.52 158.044 101.957 160.772 100.687C163.499 99.4162 165.916 98.9157 166.333 99.986C166.75 101.056 165.393 104.244 162.673 105.515C159.952 106.785 156.885 105.669 156.461 104.598Z" fill="black"/>
<path opacity="0.4" d="M105.989 91.5316C109.883 79.3807 118.779 70.3637 127.853 68.1075C143.151 64.3036 147.638 85.1789 140.247 99.5707C131.993 115.68 113.762 113.223 111.982 105.854C109.416 110.759 98.9865 113.323 105.989 91.5316Z" fill="white"/>
<path d="M140.252 77.8481C140.252 77.8481 139.213 92.6402 132.048 97.8687C124.882 103.097 114.297 96.6905 114.297 96.6905C114.297 96.6905 115.336 81.9061 122.501 76.6699C129.666 71.4337 140.252 77.8481 140.252 77.8481Z" fill="white"/>
<path d="M114.299 96.6116C114.234 92.989 114.711 89.379 115.712 85.9237C116.204 84.1554 116.882 82.4552 117.733 80.8569C118.592 79.1995 119.72 77.7255 121.061 76.5063C122.444 75.2776 124.077 74.4298 125.824 74.0345C127.521 73.6418 129.269 73.5896 130.982 73.8805C134.3 74.4117 137.465 75.7543 140.239 77.8076C137.225 76.5473 134.06 75.7692 130.841 75.4976C129.297 75.385 127.747 75.5409 126.248 75.9596C124.784 76.3283 123.423 77.0728 122.277 78.1311C121.089 79.1836 120.078 80.4524 119.288 81.8811L118.963 82.4124L118.673 82.9745C118.489 83.3518 118.284 83.7445 118.108 84.1065C117.775 84.8765 117.401 85.6465 117.125 86.4704C115.92 89.7571 114.975 93.1498 114.299 96.6116Z" fill="#263238"/>
<path d="M159.367 68.8833C159.367 68.8833 169.91 78.2699 178.298 76.1986C186.686 74.1272 189.759 61.3833 189.759 61.3833C189.759 61.3833 179.224 51.9967 170.829 54.0681C162.434 56.1394 159.367 68.8833 159.367 68.8833Z" fill="white"/>
<path d="M189.761 61.384C186.994 59.537 184.089 57.9477 181.076 56.633C180.37 56.3096 179.571 56.0632 178.822 55.786C178.448 55.6551 178.059 55.5627 177.678 55.4471L177.112 55.2854L176.533 55.1776C175.039 54.8187 173.5 54.7406 171.982 54.9466C170.489 55.1273 169.055 55.6892 167.799 56.5868C166.487 57.4776 165.315 58.593 164.329 59.8902C162.288 62.6102 160.622 65.64 159.383 68.8841C159.929 65.2791 161.219 61.8563 163.156 58.8738C164.146 57.3215 165.386 55.9778 166.817 54.9081C168.29 53.8009 169.987 53.0982 171.763 52.8599C173.496 52.6437 175.251 52.7716 176.943 53.2372C178.578 53.669 180.162 54.3046 181.663 55.1314C184.656 56.7232 187.391 58.835 189.761 61.384Z" fill="#263238"/>
<path d="M133.518 95.1964C137.625 94.1079 140.144 89.5976 139.146 85.1224C138.147 80.6472 134.008 77.9016 129.901 78.9901C125.794 80.0786 123.275 84.5888 124.273 89.0641C125.272 93.5393 129.411 96.2848 133.518 95.1964Z" fill="#263238"/>
<path d="M125.561 87.5876C125.814 88.2247 126.234 88.7659 126.769 89.1429C127.303 89.5199 127.929 89.7158 128.565 89.7059C129.202 89.6959 129.822 89.4805 130.347 89.0868C130.871 88.6932 131.277 88.139 131.513 87.4943C131.748 86.8495 131.803 86.1431 131.671 85.4643C131.538 84.7855 131.224 84.1646 130.768 83.6803C130.312 83.1959 129.734 82.8696 129.108 82.7428C128.482 82.6159 127.835 82.6941 127.25 82.9674C126.86 83.1494 126.507 83.4134 126.211 83.7442C125.916 84.0751 125.683 84.4663 125.526 84.8955C125.369 85.3247 125.291 85.7835 125.297 86.2454C125.303 86.7074 125.393 87.1634 125.561 87.5876Z" fill="white"/>
<path d="M178.237 71.7823C179.807 67.5063 177.899 62.6527 173.975 60.9416C170.051 59.2304 165.597 61.3097 164.027 65.5857C162.457 69.8617 164.365 74.7153 168.289 76.4264C172.213 78.1376 176.667 76.0584 178.237 71.7823Z" fill="#263238"/>
<path d="M164.985 69.1774C165.238 69.8145 165.658 70.3557 166.193 70.7328C166.728 71.1098 167.353 71.3057 167.99 71.2957C168.626 71.2857 169.246 71.0703 169.771 70.6767C170.295 70.2831 170.701 69.7289 170.937 69.0841C171.172 68.4394 171.227 67.733 171.095 67.0541C170.962 66.3753 170.648 65.7545 170.192 65.2701C169.736 64.7857 169.158 64.4595 168.532 64.3326C167.906 64.2057 167.26 64.2839 166.674 64.5573C166.284 64.7384 165.93 65.0019 165.634 65.3326C165.337 65.6633 165.104 66.0547 164.947 66.4842C164.79 66.9136 164.713 67.3727 164.719 67.835C164.726 68.2972 164.816 68.7534 164.985 69.1774Z" fill="white"/>
<path d="M132.836 87.6024C132.937 87.8562 133.105 88.0714 133.319 88.2211C133.533 88.3708 133.782 88.4481 134.036 88.4433C134.29 88.4385 134.537 88.3519 134.746 88.1943C134.955 88.0367 135.117 87.8153 135.21 87.5579C135.304 87.3005 135.325 87.0186 135.272 86.748C135.218 86.4773 135.093 86.2299 134.911 86.037C134.728 85.844 134.498 85.7142 134.248 85.6639C133.998 85.6137 133.74 85.6451 133.507 85.7544C133.194 85.9032 132.947 86.1812 132.821 86.5275C132.695 86.8738 132.701 87.2602 132.836 87.6024Z" fill="white"/>
<path d="M172.254 69.1916C172.352 69.4467 172.517 69.6645 172.728 69.8178C172.939 69.971 173.187 70.0528 173.44 70.0529C173.694 70.053 173.942 69.9713 174.153 69.8182C174.364 69.6651 174.529 69.4473 174.627 69.1924C174.725 68.9374 174.751 68.6566 174.703 68.3852C174.655 68.1139 174.534 67.8641 174.356 67.6673C174.178 67.4705 173.951 67.3355 173.702 67.2793C173.454 67.2231 173.196 67.2481 172.961 67.3513C172.802 67.4197 172.658 67.522 172.536 67.6522C172.414 67.7824 172.317 67.9377 172.251 68.1092C172.186 68.2807 172.152 68.4648 172.152 68.6507C172.153 68.8366 172.187 69.0205 172.254 69.1916Z" fill="white"/>
<path d="M168.149 95.4599C167.76 95.7294 167.372 96.0066 166.969 96.2299C166.566 96.4532 166.121 96.6688 165.676 96.846C164.767 97.1924 163.812 97.377 162.849 97.3927C161.859 97.3777 160.881 97.1473 159.973 96.715C159.039 96.2687 158.211 95.5973 157.549 94.7515L158.701 94.2125C158.804 95.3195 158.678 96.4376 158.334 97.4851C157.995 98.4984 157.473 99.4278 156.8 100.219C156.128 100.969 155.348 101.593 154.49 102.067C154.066 102.289 153.632 102.486 153.19 102.66C152.737 102.806 152.285 102.929 151.84 103.045C152.243 102.783 152.645 102.544 153.041 102.275C153.437 102.005 153.804 101.759 154.158 101.451C154.857 100.884 155.486 100.222 156.03 99.4794C156.54 98.7449 156.927 97.9187 157.175 97.0385C157.297 96.604 157.383 96.158 157.429 95.7063C157.475 95.2766 157.475 94.8424 157.429 94.4127C157.413 94.2318 157.461 94.051 157.564 93.9076C157.666 93.7643 157.816 93.6694 157.98 93.6426C158.093 93.6269 158.207 93.6427 158.312 93.6885C158.417 93.7343 158.51 93.8087 158.581 93.9045C158.838 94.235 159.124 94.5368 159.436 94.8054C159.772 95.072 160.126 95.3089 160.496 95.5138C161.253 95.9185 162.068 96.179 162.906 96.2838C163.776 96.3693 164.653 96.3278 165.513 96.1606C165.958 96.099 166.389 95.945 166.835 95.8526C167.28 95.7602 167.704 95.5985 168.149 95.4599Z" fill="#263238"/>
<path d="M158.066 95.0576C157.941 95.0563 157.818 95.0157 157.713 94.9406C157.607 94.8656 157.524 94.7592 157.473 94.6341L155.515 89.6212C155.449 89.4506 155.448 89.2585 155.512 89.0868C155.575 88.9151 155.698 88.7778 155.855 88.7049C155.932 88.667 156.016 88.6465 156.101 88.6447C156.187 88.6428 156.271 88.6596 156.35 88.6941C156.429 88.7286 156.501 88.78 156.562 88.8454C156.622 88.9107 156.67 88.9886 156.703 89.0745L158.674 94.0797C158.716 94.1865 158.733 94.3031 158.724 94.419C158.714 94.5349 158.679 94.6464 158.62 94.7434C158.561 94.8405 158.481 94.92 158.387 94.9749C158.292 95.0297 158.187 95.0581 158.08 95.0576H158.066Z" fill="#263238"/>
<path d="M93.8418 105.742C88.111 108.676 83.9489 114.913 82.9102 122.298C87.9697 115.568 93.87 117.547 93.87 117.547L93.8418 105.742Z" fill="#402A2E"/>
<path d="M94.4274 123.941C93.4271 126.422 92.9976 129.131 93.1762 131.834C93.3547 134.536 94.1359 137.151 95.452 139.45C95.3954 132.827 99.7342 130.856 99.7342 130.856L94.4274 123.941Z" fill="#402A2E"/>
<path d="M94.0947 113.777C88.3215 118.474 85.0144 126.46 85.3607 134.961C89.6005 126.19 96.5961 126.937 96.5961 126.937L94.0947 113.777Z" fill="#402A2E"/>
<path d="M209.926 51.5444C215.826 49.0495 222.822 50.0968 228.468 54.3396C220.504 53.6928 217.748 59.7298 217.748 59.7298L209.926 51.5444Z" fill="#402A2E"/>
<path d="M219.719 64.2483C224.474 63.409 229.661 64.0635 232.841 67.4362C228.937 67.4337 225.158 68.9336 222.171 71.6714L219.719 64.2483Z" fill="#402A2E"/>
<path d="M218.13 63.4922C222.448 65.8023 226.306 69.6524 227.083 74.4188C223.913 71.9327 220.038 70.7488 216.145 71.0769L218.13 63.4922Z" fill="#402A2E"/>
<path d="M215.102 57.2887C222.203 55.9719 229.785 58.8749 235.198 64.9889C226.45 62.2861 222.118 68.3154 222.118 68.3154L215.102 57.2887Z" fill="#402A2E"/>
<path d="M135.024 49.7628C134.756 45.4045 136.685 41.6545 141.462 37.7812C140.458 44.003 144.592 45.5585 144.592 45.5585L135.024 49.7628Z" fill="#402A2E"/>
<path d="M140.238 47.339C141.185 42.2722 145.948 37.3286 152.88 34.1484C147.934 39.9544 151.919 43.5581 151.919 43.5581L140.238 47.339Z" fill="#402A2E"/>
<path d="M100.814 138.335C100.751 138.332 100.69 138.311 100.637 138.273C100.602 138.247 100.572 138.214 100.549 138.176C100.526 138.138 100.51 138.095 100.502 138.05C100.494 138.005 100.494 137.958 100.503 137.913C100.512 137.868 100.529 137.826 100.553 137.788C119.285 107.279 153.373 95.244 153.713 95.1285C153.795 95.1016 153.884 95.1106 153.96 95.1537C154.037 95.1968 154.095 95.2706 154.122 95.3595C154.147 95.4483 154.138 95.544 154.099 95.6261C154.059 95.7082 153.991 95.77 153.91 95.7984C153.571 95.9139 119.695 107.88 101.083 138.15C101.058 138.205 101.02 138.251 100.972 138.283C100.925 138.316 100.87 138.334 100.814 138.335Z" fill="#263238"/>
<path d="M105.976 157.552C105.941 157.559 105.905 157.559 105.87 157.552C105.788 157.522 105.721 157.458 105.683 157.375C105.644 157.291 105.638 157.194 105.665 157.105C118.596 115.947 152.444 98.1137 152.783 97.9443C152.859 97.9046 152.946 97.8993 153.026 97.9296C153.105 97.9599 153.17 98.0234 153.207 98.106C153.226 98.1473 153.238 98.1924 153.241 98.2386C153.243 98.2848 153.238 98.3312 153.224 98.375C153.21 98.4188 153.188 98.4591 153.16 98.4936C153.132 98.5281 153.097 98.556 153.059 98.5757C152.72 98.7528 119.14 116.463 106.28 157.336C106.254 157.4 106.211 157.455 106.157 157.493C106.103 157.532 106.04 157.552 105.976 157.552Z" fill="#263238"/>
<path d="M161.738 92.1149C161.681 92.1162 161.625 92.1004 161.577 92.0691C161.528 92.0378 161.488 91.9923 161.462 91.9378C161.439 91.8987 161.424 91.855 161.418 91.8094C161.411 91.7638 161.413 91.7172 161.424 91.6725C161.435 91.6278 161.453 91.5859 161.479 91.5494C161.505 91.513 161.538 91.4826 161.575 91.4604C161.886 91.2602 193.027 71.9557 226.338 77.4536C226.38 77.4592 226.42 77.474 226.456 77.497C226.492 77.52 226.524 77.5508 226.549 77.5875C226.574 77.6242 226.592 77.666 226.602 77.7105C226.612 77.755 226.613 77.8012 226.606 77.8463C226.591 77.9375 226.545 78.019 226.476 78.0746C226.408 78.1302 226.324 78.1559 226.239 78.1467C193.162 72.6795 162.211 91.8685 161.935 92.0687C161.876 92.1066 161.806 92.1228 161.738 92.1149Z" fill="#263238"/>
<path d="M228.571 94.7029C228.538 94.7109 228.504 94.7109 228.472 94.7029C189.041 80.8425 164.585 93.1629 164.338 93.3015C164.261 93.3413 164.172 93.3462 164.092 93.3152C164.012 93.2841 163.947 93.2196 163.91 93.1359C163.873 93.0522 163.869 92.9561 163.897 92.8687C163.926 92.7813 163.985 92.7099 164.062 92.67C164.302 92.5391 188.971 80.0725 228.669 94.033C228.75 94.0645 228.816 94.1285 228.854 94.2116C228.892 94.2948 228.899 94.3907 228.874 94.4796C228.851 94.5464 228.809 94.6038 228.755 94.6438C228.701 94.6837 228.636 94.7044 228.571 94.7029Z" fill="#263238"/>
<path d="M155.624 282.874C161.715 275.706 161.321 264.516 154.743 257.878C148.166 251.241 137.896 251.671 131.806 258.839C125.715 266.006 126.109 277.197 132.687 283.834C139.264 290.471 149.534 290.041 155.624 282.874Z" fill="#402A2E"/>
<path d="M189.258 289.31C181.216 289.31 178.375 285.991 175.634 282.788C174.726 281.669 173.731 280.639 172.659 279.708C168.546 276.289 162.059 274.726 158.788 276.366C158.635 276.394 158.478 276.366 158.341 276.287C158.205 276.209 158.095 276.083 158.03 275.93C157.965 275.777 157.948 275.605 157.982 275.44C158.015 275.276 158.097 275.127 158.215 275.019C161.96 273.147 168.949 274.757 173.486 278.522C174.619 279.514 175.674 280.608 176.637 281.795C179.294 284.913 181.81 287.855 189.258 287.855C191.075 287.907 192.872 287.422 194.457 286.451C196.042 285.481 197.356 284.061 198.26 282.341C199.007 280.992 199.41 279.451 199.429 277.876C199.447 276.3 199.08 274.748 198.366 273.378C196.677 270.414 193.201 268.905 188.565 269.143C188.462 269.179 188.352 269.188 188.245 269.171C188.138 269.153 188.036 269.109 187.947 269.041C187.858 268.974 187.785 268.885 187.732 268.782C187.68 268.678 187.65 268.563 187.645 268.445C187.64 268.327 187.66 268.21 187.703 268.101C187.747 267.993 187.812 267.897 187.895 267.821C187.978 267.745 188.076 267.691 188.181 267.662C188.286 267.634 188.396 267.632 188.502 267.657C193.653 267.403 197.568 269.151 199.525 272.593C200.366 274.189 200.803 275.999 200.791 277.84C200.778 279.68 200.317 281.483 199.454 283.065C198.43 285.012 196.941 286.62 195.146 287.72C193.351 288.819 191.316 289.369 189.258 289.31Z" fill="#402A2E"/>
<path d="M150.567 284.367C142.015 284.273 133.772 280.866 127.312 274.757C127.228 274.616 127.189 274.449 127.201 274.281C127.213 274.113 127.275 273.954 127.378 273.829C127.48 273.703 127.618 273.617 127.769 273.585C127.921 273.552 128.078 273.575 128.216 273.649C133.869 279.147 143.96 284.352 155.217 282.504C155.316 282.457 155.424 282.435 155.532 282.44C155.641 282.446 155.746 282.478 155.841 282.535C155.936 282.592 156.018 282.672 156.08 282.769C156.142 282.866 156.182 282.977 156.199 283.094C156.215 283.211 156.206 283.33 156.174 283.442C156.141 283.555 156.085 283.658 156.01 283.743C155.934 283.828 155.842 283.893 155.74 283.934C155.639 283.974 155.529 283.988 155.422 283.975C153.815 284.237 152.192 284.368 150.567 284.367Z" fill="#402A2E"/>
<path d="M148.792 286.571C140.461 286.571 133.345 282.998 127.134 275.713C127.013 275.571 126.945 275.384 126.945 275.19C126.945 274.995 127.013 274.808 127.134 274.666C127.265 274.532 127.438 274.457 127.618 274.457C127.798 274.457 127.971 274.532 128.102 274.666C134.977 282.736 143.012 286.039 152.657 284.792C152.758 284.746 152.867 284.726 152.977 284.734C153.086 284.741 153.191 284.777 153.286 284.837C153.38 284.896 153.461 284.979 153.521 285.079C153.581 285.178 153.619 285.292 153.632 285.41C153.645 285.528 153.633 285.648 153.596 285.76C153.56 285.873 153.499 285.974 153.421 286.057C153.342 286.139 153.247 286.201 153.143 286.237C153.038 286.272 152.928 286.281 152.82 286.263C151.484 286.454 150.139 286.557 148.792 286.571Z" fill="#402A2E"/>
<path d="M136.48 287.459C136.304 287.46 136.134 287.389 136.004 287.261C135.873 287.133 135.791 286.956 135.773 286.766C135.18 278.08 137.929 264.25 145.391 252.938C145.511 252.832 145.66 252.771 145.814 252.766C145.969 252.761 146.121 252.811 146.247 252.909C146.373 253.007 146.466 253.147 146.512 253.308C146.558 253.469 146.553 253.642 146.5 253.801C139.264 264.82 136.586 278.241 137.144 286.658C137.145 286.848 137.082 287.032 136.966 287.174C136.849 287.317 136.689 287.407 136.515 287.428L136.48 287.459Z" fill="#402A2E"/>
<path d="M129.699 280.573C129.569 280.572 129.442 280.532 129.332 280.458C129.184 280.348 129.08 280.181 129.041 279.991C129.001 279.801 129.03 279.602 129.12 279.433C131.494 275.345 140.313 261.63 154.135 256.818C154.306 256.765 154.489 256.785 154.648 256.874C154.807 256.962 154.929 257.113 154.99 257.295C155.038 257.482 155.019 257.682 154.938 257.855C154.857 258.027 154.719 258.16 154.551 258.227C141.168 262.893 132.582 276.245 130.272 280.227C130.209 280.33 130.124 280.416 130.024 280.476C129.925 280.537 129.813 280.57 129.699 280.573Z" fill="#402A2E"/>
<path d="M129.7 280.569C129.613 280.57 129.526 280.551 129.446 280.515C129.282 280.437 129.152 280.294 129.081 280.115C129.011 279.937 129.004 279.736 129.064 279.552C131.154 273.953 134.315 268.904 138.336 264.74C142.356 260.576 147.145 257.394 152.383 255.404C152.538 255.392 152.692 255.436 152.821 255.529C152.951 255.621 153.049 255.758 153.1 255.917C153.151 256.076 153.153 256.249 153.106 256.41C153.058 256.571 152.963 256.71 152.835 256.806C147.777 258.722 143.151 261.792 139.266 265.81C135.382 269.827 132.328 274.701 130.308 280.107C130.256 280.237 130.171 280.35 130.064 280.431C129.957 280.513 129.831 280.561 129.7 280.569Z" fill="#402A2E"/>
<path d="M134.466 286.167C134.295 286.168 134.129 286.102 133.999 285.98C133.869 285.858 133.784 285.689 133.76 285.504C132.05 269.457 136.883 260.278 142.367 252.755C142.482 252.607 142.645 252.513 142.821 252.49C142.998 252.467 143.177 252.518 143.321 252.632C143.458 252.758 143.546 252.937 143.567 253.131C143.588 253.326 143.541 253.522 143.434 253.679C138.134 260.956 133.463 269.85 135.117 285.335C135.131 285.53 135.077 285.723 134.966 285.876C134.854 286.029 134.693 286.13 134.516 286.159L134.466 286.167Z" fill="#402A2E"/>
<path d="M132.572 284.489C132.425 284.485 132.282 284.431 132.164 284.334C132.046 284.237 131.959 284.103 131.915 283.95C129.795 275.441 131.371 262.135 140.02 253.01C140.151 252.878 140.323 252.805 140.501 252.805C140.679 252.805 140.851 252.878 140.981 253.01C141.104 253.153 141.173 253.342 141.173 253.538C141.173 253.734 141.104 253.922 140.981 254.065C133.102 262.374 131.124 275.179 133.244 283.534C133.286 283.724 133.261 283.924 133.173 284.094C133.085 284.264 132.941 284.391 132.77 284.45L132.572 284.489Z" fill="#402A2E"/>
<path d="M159.759 274.095C159.617 274.093 159.479 274.044 159.363 273.956C149.258 266.032 136.934 263.114 129.211 263.745C129.057 263.714 128.917 263.629 128.813 263.502C128.709 263.375 128.646 263.214 128.635 263.044C128.623 262.874 128.664 262.705 128.75 262.563C128.837 262.421 128.964 262.314 129.112 262.259C137.083 261.62 149.774 264.608 160.161 272.747C160.266 272.846 160.341 272.977 160.378 273.122C160.415 273.268 160.412 273.422 160.369 273.566C160.326 273.71 160.245 273.836 160.137 273.93C160.028 274.024 159.897 274.081 159.759 274.095Z" fill="#402A2E"/>
<path d="M159.898 272.041C159.803 272.043 159.709 272.022 159.622 271.979C150.563 267.597 136.855 267.02 127.739 270.624C127.651 270.693 127.548 270.739 127.441 270.758C127.333 270.777 127.223 270.768 127.119 270.733C127.015 270.698 126.92 270.637 126.841 270.555C126.762 270.474 126.701 270.373 126.664 270.261C126.627 270.15 126.613 270.03 126.625 269.912C126.638 269.794 126.674 269.681 126.733 269.581C126.792 269.481 126.872 269.397 126.965 269.337C127.059 269.276 127.164 269.239 127.273 269.23C136.685 265.503 150.825 266.104 160.174 270.624C160.334 270.709 160.459 270.857 160.523 271.039C160.587 271.22 160.586 271.421 160.52 271.602C160.464 271.73 160.376 271.839 160.266 271.917C160.156 271.994 160.029 272.037 159.898 272.041Z" fill="#402A2E"/>
<path d="M159.868 269.958C159.774 269.956 159.681 269.934 159.595 269.893C159.509 269.852 159.431 269.793 159.366 269.719C152.646 261.757 143.94 258.938 131.101 260.548C131 260.594 130.891 260.614 130.782 260.606C130.673 260.598 130.567 260.563 130.472 260.503C130.378 260.443 130.297 260.36 130.237 260.261C130.177 260.161 130.139 260.048 130.126 259.93C130.113 259.811 130.125 259.692 130.162 259.579C130.199 259.467 130.259 259.366 130.337 259.283C130.416 259.2 130.511 259.139 130.616 259.103C130.72 259.067 130.83 259.058 130.938 259.077C144.053 257.414 153.395 260.479 160.341 268.718C160.419 268.827 160.469 268.958 160.484 269.096C160.5 269.234 160.481 269.374 160.43 269.501C160.378 269.628 160.296 269.737 160.192 269.818C160.089 269.898 159.967 269.946 159.84 269.958H159.868Z" fill="#402A2E"/>
<path d="M159.361 266.942C159.18 266.937 159.008 266.857 158.88 266.718C150.478 257.586 138.628 256.269 133.265 258.248C133.109 258.259 132.955 258.214 132.826 258.12C132.696 258.025 132.599 257.887 132.549 257.727C132.499 257.566 132.499 257.392 132.549 257.231C132.6 257.071 132.697 256.933 132.826 256.839C138.515 254.737 151.036 256.069 159.841 265.663C159.962 265.806 160.03 265.993 160.03 266.187C160.03 266.381 159.962 266.568 159.841 266.711C159.714 266.852 159.542 266.935 159.361 266.942Z" fill="#402A2E"/>
<path d="M156.221 282.912C156.158 282.924 156.093 282.924 156.03 282.912C139.778 277.668 127.829 265.764 127.715 265.641C127.634 265.498 127.598 265.33 127.612 265.163C127.627 264.996 127.691 264.839 127.795 264.715C127.899 264.591 128.037 264.508 128.189 264.477C128.34 264.447 128.497 264.472 128.634 264.547C128.754 264.67 140.484 276.344 156.419 281.488C156.555 281.559 156.667 281.676 156.737 281.821C156.808 281.966 156.835 282.132 156.812 282.295C156.79 282.458 156.721 282.608 156.615 282.725C156.508 282.842 156.37 282.918 156.221 282.943V282.912Z" fill="#402A2E"/>
<path d="M156.546 282.461C156.454 282.46 156.363 282.439 156.278 282.399C146.444 277.614 137.022 271.881 128.126 265.266C128.022 265.227 127.929 265.162 127.853 265.077C127.776 264.991 127.719 264.888 127.686 264.774C127.653 264.66 127.644 264.54 127.661 264.422C127.677 264.304 127.719 264.192 127.782 264.095C127.845 263.998 127.928 263.918 128.025 263.861C128.121 263.805 128.228 263.774 128.337 263.77C128.447 263.766 128.555 263.79 128.655 263.84C128.754 263.89 128.841 263.964 128.91 264.057C137.728 270.613 147.067 276.295 156.815 281.036C156.941 281.118 157.04 281.241 157.1 281.387C157.159 281.533 157.175 281.696 157.145 281.853C157.116 282.009 157.042 282.152 156.935 282.261C156.828 282.37 156.692 282.44 156.546 282.461Z" fill="#402A2E"/>
<path d="M157.147 281.543C157.036 281.545 156.927 281.516 156.829 281.458C142.93 273.311 128.359 265.403 128.218 265.326C128.102 265.214 128.023 265.064 127.994 264.899C127.964 264.733 127.985 264.562 128.053 264.411C128.121 264.26 128.233 264.137 128.371 264.062C128.509 263.986 128.666 263.963 128.818 263.994C128.967 264.071 143.559 271.994 157.472 280.164C157.589 280.254 157.678 280.381 157.728 280.527C157.777 280.673 157.785 280.832 157.749 280.983C157.714 281.134 157.638 281.27 157.53 281.373C157.423 281.475 157.289 281.54 157.147 281.558V281.543Z" fill="#402A2E"/>
<path d="M157.637 280.727C157.486 280.73 157.338 280.675 157.22 280.573C144.599 269.792 128.735 264.787 128.573 264.741C128.439 264.654 128.334 264.522 128.277 264.364C128.219 264.206 128.211 264.031 128.254 263.868C128.296 263.704 128.388 263.561 128.513 263.459C128.639 263.358 128.791 263.305 128.947 263.309C129.11 263.363 145.2 268.429 158.061 279.402C158.196 279.528 158.283 279.705 158.304 279.898C158.325 280.091 158.279 280.285 158.174 280.442C158.111 280.532 158.03 280.604 157.936 280.654C157.843 280.703 157.74 280.728 157.637 280.727Z" fill="#402A2E"/>
<path d="M158.938 277.735C158.782 277.734 158.63 277.677 158.507 277.573C146.946 267.224 128.828 264.783 128.673 264.76C128.528 264.697 128.406 264.584 128.326 264.438C128.246 264.292 128.213 264.121 128.232 263.952C128.25 263.783 128.319 263.626 128.429 263.505C128.538 263.383 128.681 263.305 128.835 263.281C129.019 263.281 147.498 265.799 159.376 276.426C159.508 276.555 159.591 276.733 159.608 276.926C159.625 277.118 159.575 277.311 159.468 277.465C159.402 277.549 159.321 277.616 159.23 277.662C159.138 277.709 159.039 277.734 158.938 277.735Z" fill="#402A2E"/>
<path d="M137.632 288.064C137.496 288.049 137.367 287.99 137.261 287.896C137.155 287.802 137.076 287.676 137.034 287.535C136.992 287.393 136.989 287.241 137.025 287.097C137.061 286.953 137.134 286.824 137.236 286.725C150.118 276.568 157.474 262.476 157.544 262.338C157.571 262.223 157.622 262.117 157.693 262.027C157.763 261.937 157.852 261.866 157.952 261.82C158.052 261.773 158.16 261.752 158.269 261.759C158.377 261.766 158.483 261.799 158.577 261.858C158.672 261.916 158.753 261.997 158.814 262.095C158.875 262.193 158.914 262.305 158.929 262.422C158.944 262.539 158.934 262.658 158.9 262.771C158.866 262.883 158.808 262.985 158.732 263.069C158.661 263.208 151.156 277.584 138.034 287.926C137.916 288.016 137.776 288.064 137.632 288.064Z" fill="#402A2E"/>
<g opacity="0.3">
<path d="M150.563 284.363C142.011 284.269 133.768 280.863 127.308 274.754C127.224 274.612 127.186 274.445 127.197 274.277C127.209 274.109 127.271 273.951 127.374 273.825C127.476 273.699 127.614 273.613 127.765 273.581C127.917 273.548 128.074 273.571 128.212 273.645C133.866 279.143 143.956 284.348 155.213 282.5C155.312 282.453 155.42 282.431 155.528 282.436C155.637 282.442 155.742 282.474 155.837 282.531C155.932 282.588 156.014 282.668 156.076 282.765C156.138 282.862 156.179 282.973 156.195 283.09C156.211 283.207 156.202 283.326 156.17 283.439C156.137 283.551 156.081 283.654 156.006 283.739C155.931 283.824 155.838 283.889 155.737 283.93C155.635 283.97 155.526 283.984 155.418 283.971C153.811 284.233 152.188 284.364 150.563 284.363Z" fill="black"/>
<path d="M148.784 286.567C140.453 286.567 133.337 282.994 127.126 275.709C127.005 275.567 126.938 275.38 126.938 275.186C126.938 274.992 127.005 274.805 127.126 274.662C127.257 274.528 127.43 274.453 127.61 274.453C127.79 274.453 127.963 274.528 128.094 274.662C134.97 282.732 143.004 286.035 152.65 284.788C152.75 284.742 152.86 284.722 152.969 284.73C153.078 284.738 153.184 284.773 153.278 284.833C153.373 284.893 153.453 284.976 153.513 285.075C153.573 285.175 153.611 285.288 153.624 285.406C153.637 285.524 153.625 285.644 153.588 285.756C153.552 285.869 153.492 285.97 153.413 286.053C153.334 286.135 153.239 286.197 153.135 286.233C153.031 286.268 152.92 286.277 152.812 286.259C151.476 286.45 150.131 286.553 148.784 286.567Z" fill="black"/>
<path d="M136.476 287.459C136.3 287.46 136.131 287.389 136 287.261C135.869 287.133 135.787 286.956 135.77 286.766C135.176 278.08 137.925 264.25 145.387 252.938C145.507 252.832 145.656 252.771 145.81 252.766C145.965 252.761 146.117 252.811 146.243 252.909C146.369 253.007 146.462 253.147 146.508 253.308C146.554 253.469 146.55 253.642 146.496 253.801C139.26 264.82 136.582 278.241 137.14 286.658C137.141 286.848 137.078 287.032 136.962 287.174C136.845 287.317 136.685 287.407 136.511 287.428L136.476 287.459Z" fill="black"/>
<path d="M129.699 280.569C129.569 280.568 129.442 280.528 129.332 280.454C129.184 280.344 129.08 280.177 129.041 279.987C129.001 279.797 129.03 279.598 129.12 279.429C131.494 275.341 140.313 261.627 154.135 256.814C154.306 256.761 154.489 256.781 154.648 256.87C154.807 256.958 154.929 257.109 154.99 257.291C155.038 257.478 155.019 257.678 154.938 257.851C154.857 258.024 154.719 258.156 154.551 258.223C141.168 262.889 132.582 276.242 130.272 280.223C130.209 280.326 130.124 280.412 130.024 280.472C129.925 280.533 129.813 280.566 129.699 280.569Z" fill="black"/>
<path d="M129.7 280.569C129.613 280.57 129.526 280.551 129.446 280.515C129.282 280.437 129.152 280.294 129.081 280.115C129.011 279.937 129.004 279.736 129.064 279.552C131.154 273.953 134.315 268.904 138.336 264.74C142.356 260.576 147.145 257.394 152.383 255.404C152.538 255.392 152.692 255.436 152.821 255.529C152.951 255.621 153.049 255.758 153.1 255.917C153.151 256.076 153.153 256.249 153.106 256.41C153.058 256.571 152.963 256.71 152.835 256.806C147.777 258.722 143.151 261.792 139.266 265.81C135.382 269.827 132.328 274.701 130.308 280.107C130.256 280.237 130.171 280.35 130.064 280.431C129.957 280.513 129.831 280.561 129.7 280.569Z" fill="black"/>
<path d="M134.463 286.167C134.291 286.168 134.125 286.102 133.995 285.98C133.865 285.858 133.78 285.689 133.756 285.504C132.046 269.457 136.879 260.278 142.363 252.755C142.478 252.607 142.641 252.513 142.817 252.49C142.994 252.467 143.173 252.518 143.317 252.632C143.454 252.758 143.542 252.937 143.563 253.131C143.584 253.326 143.537 253.522 143.43 253.679C138.13 260.956 133.459 269.85 135.113 285.335C135.127 285.53 135.073 285.723 134.962 285.876C134.85 286.029 134.689 286.13 134.512 286.159L134.463 286.167Z" fill="black"/>
<path d="M132.568 284.489C132.421 284.485 132.278 284.431 132.16 284.334C132.043 284.237 131.955 284.103 131.911 283.95C129.791 275.441 131.367 262.135 140.016 253.01C140.147 252.878 140.319 252.805 140.497 252.805C140.675 252.805 140.847 252.878 140.977 253.01C141.101 253.153 141.169 253.342 141.169 253.538C141.169 253.734 141.101 253.922 140.977 254.065C133.098 262.374 131.12 275.179 133.24 283.534C133.282 283.724 133.257 283.924 133.169 284.094C133.081 284.264 132.937 284.391 132.766 284.45L132.568 284.489Z" fill="black"/>
<path d="M159.755 274.091C159.613 274.089 159.475 274.04 159.359 273.952C149.254 266.028 136.93 263.11 129.207 263.741C129.053 263.71 128.913 263.625 128.809 263.498C128.705 263.371 128.642 263.21 128.631 263.04C128.619 262.87 128.66 262.701 128.746 262.559C128.833 262.417 128.96 262.31 129.108 262.255C137.079 261.616 149.77 264.604 160.157 272.743C160.262 272.842 160.337 272.973 160.374 273.119C160.411 273.264 160.408 273.418 160.365 273.562C160.322 273.706 160.241 273.832 160.133 273.926C160.024 274.02 159.893 274.077 159.755 274.091Z" fill="black"/>
<path d="M159.894 272.037C159.799 272.039 159.705 272.018 159.619 271.975C150.56 267.594 136.851 267.016 127.735 270.62C127.647 270.689 127.545 270.735 127.437 270.754C127.329 270.773 127.219 270.764 127.115 270.729C127.011 270.694 126.916 270.633 126.837 270.552C126.758 270.47 126.697 270.369 126.66 270.257C126.623 270.146 126.609 270.026 126.622 269.908C126.634 269.79 126.671 269.677 126.73 269.577C126.788 269.477 126.868 269.394 126.961 269.333C127.055 269.272 127.16 269.235 127.269 269.226C136.681 265.499 150.821 266.1 160.17 270.62C160.33 270.705 160.455 270.853 160.519 271.035C160.583 271.216 160.582 271.417 160.516 271.598C160.46 271.726 160.372 271.836 160.262 271.913C160.152 271.991 160.025 272.033 159.894 272.037Z" fill="black"/>
<path d="M159.864 269.958C159.77 269.956 159.677 269.934 159.591 269.893C159.505 269.852 159.427 269.793 159.362 269.719C152.642 261.757 143.936 258.938 131.097 260.548C130.996 260.594 130.887 260.614 130.778 260.606C130.669 260.598 130.563 260.563 130.468 260.503C130.374 260.443 130.293 260.36 130.233 260.261C130.173 260.161 130.135 260.048 130.122 259.93C130.109 259.811 130.121 259.692 130.158 259.579C130.195 259.467 130.255 259.366 130.334 259.283C130.412 259.2 130.507 259.139 130.612 259.103C130.716 259.067 130.826 259.058 130.934 259.077C144.049 257.414 153.391 260.479 160.337 268.718C160.416 268.827 160.465 268.958 160.481 269.096C160.496 269.234 160.477 269.374 160.426 269.501C160.374 269.628 160.292 269.737 160.188 269.818C160.085 269.898 159.963 269.946 159.836 269.958H159.864Z" fill="black"/>
<path d="M159.357 266.942C159.176 266.937 159.004 266.857 158.876 266.718C150.474 257.586 138.624 256.269 133.261 258.248C133.105 258.259 132.951 258.214 132.822 258.12C132.692 258.025 132.595 257.887 132.545 257.727C132.495 257.566 132.495 257.392 132.546 257.231C132.596 257.071 132.693 256.933 132.823 256.839C138.511 254.737 151.033 256.069 159.837 265.663C159.958 265.806 160.026 265.993 160.026 266.187C160.026 266.381 159.958 266.568 159.837 266.711C159.71 266.852 159.538 266.935 159.357 266.942Z" fill="black"/>
<path d="M156.221 282.908C156.158 282.92 156.093 282.92 156.03 282.908C139.778 277.665 127.829 265.76 127.715 265.637C127.634 265.494 127.598 265.327 127.612 265.159C127.627 264.992 127.691 264.835 127.795 264.711C127.899 264.587 128.037 264.504 128.189 264.474C128.34 264.443 128.497 264.468 128.634 264.543C128.754 264.667 140.484 276.34 156.419 281.484C156.555 281.555 156.667 281.672 156.737 281.817C156.808 281.962 156.835 282.128 156.812 282.291C156.79 282.454 156.721 282.604 156.615 282.721C156.508 282.838 156.37 282.914 156.221 282.939V282.908Z" fill="black"/>
<path d="M156.546 282.453C156.454 282.452 156.363 282.431 156.278 282.392C146.444 277.607 137.022 271.873 128.126 265.259C128.022 265.219 127.929 265.154 127.853 265.069C127.776 264.983 127.719 264.88 127.686 264.766C127.653 264.653 127.644 264.532 127.661 264.414C127.677 264.297 127.719 264.185 127.782 264.087C127.845 263.99 127.928 263.91 128.025 263.853C128.121 263.797 128.228 263.766 128.337 263.762C128.447 263.758 128.555 263.782 128.655 263.832C128.754 263.882 128.841 263.957 128.91 264.05C137.728 270.605 147.067 276.287 156.815 281.029C156.941 281.111 157.04 281.233 157.1 281.379C157.159 281.526 157.175 281.688 157.145 281.845C157.116 282.001 157.042 282.144 156.935 282.253C156.828 282.362 156.692 282.432 156.546 282.453Z" fill="black"/>
<path d="M157.143 281.539C157.032 281.541 156.923 281.512 156.825 281.454C142.926 273.307 128.355 265.399 128.214 265.322C128.098 265.21 128.02 265.06 127.99 264.895C127.96 264.73 127.981 264.558 128.049 264.407C128.117 264.256 128.229 264.133 128.367 264.058C128.505 263.983 128.662 263.959 128.814 263.99C128.963 264.067 143.555 271.99 157.468 280.16C157.585 280.25 157.674 280.377 157.724 280.523C157.773 280.669 157.781 280.828 157.746 280.979C157.71 281.13 157.634 281.266 157.526 281.369C157.419 281.471 157.285 281.536 157.143 281.554V281.539Z" fill="black"/>
<path d="M157.633 280.723C157.482 280.726 157.334 280.671 157.216 280.569C144.595 269.788 128.731 264.783 128.569 264.737C128.435 264.65 128.331 264.518 128.273 264.36C128.215 264.202 128.207 264.027 128.25 263.864C128.292 263.7 128.384 263.557 128.509 263.455C128.635 263.354 128.787 263.301 128.943 263.305C129.106 263.359 145.196 268.425 158.057 279.398C158.192 279.524 158.279 279.701 158.3 279.894C158.321 280.087 158.275 280.281 158.17 280.438C158.107 280.528 158.026 280.6 157.932 280.65C157.839 280.699 157.736 280.724 157.633 280.723Z" fill="black"/>
<path d="M158.93 277.735C158.774 277.734 158.622 277.677 158.499 277.573C146.939 267.224 128.82 264.783 128.665 264.76C128.52 264.697 128.398 264.584 128.318 264.438C128.238 264.292 128.205 264.121 128.224 263.952C128.242 263.783 128.312 263.626 128.421 263.505C128.53 263.383 128.673 263.305 128.828 263.281C129.011 263.281 147.49 265.799 159.368 276.426C159.501 276.555 159.584 276.733 159.601 276.926C159.618 277.118 159.567 277.311 159.46 277.465C159.395 277.549 159.313 277.616 159.222 277.662C159.13 277.709 159.031 277.734 158.93 277.735Z" fill="black"/>
<path d="M137.628 288.06C137.492 288.045 137.363 287.986 137.257 287.892C137.151 287.798 137.072 287.673 137.03 287.531C136.988 287.389 136.985 287.237 137.021 287.093C137.057 286.949 137.13 286.82 137.232 286.721C150.114 276.564 157.47 262.473 157.541 262.334C157.567 262.219 157.618 262.113 157.689 262.023C157.759 261.933 157.848 261.862 157.948 261.816C158.048 261.769 158.156 261.749 158.265 261.755C158.373 261.762 158.479 261.795 158.573 261.854C158.668 261.912 158.749 261.993 158.81 262.091C158.871 262.189 158.91 262.301 158.925 262.418C158.94 262.535 158.93 262.655 158.896 262.767C158.862 262.879 158.804 262.981 158.728 263.065C158.657 263.204 151.153 277.58 138.03 287.922C137.912 288.012 137.772 288.06 137.628 288.06Z" fill="black"/>
</g>
</g>
</svg>
